M48
;Layer_Color=9474304
;FILE_FORMAT=2:5
INCH,TZ
;TYPE=PLATED
T1F00S00C0.01181
T2F00S00C0.01575
T3F00S00C0.03150
T4F00S00C0.07283
%
T01
X40700Y36700
X52200Y53000
X60551Y58892
X80500Y55549
X70800Y40900
X211670Y59130
X221900Y107500
X233400Y147500
X234000Y212300
X200000Y189400
X198600Y167500
X180400Y157400
X185939Y138050
X137900Y141453
X128334Y141183
X115139Y151272
X73800Y147000
X60000Y133599
X80500Y87500
X81000Y76100
X71400Y67600
X141400Y101400
X193500Y76700
X165308Y187400
X142631Y210000
X119988Y208000
X48475Y102264
X33465Y89500
X5808Y97120
X15000Y227300
X9400Y251500
X20200Y281900
X93000Y280900
X86500Y257100
X70000Y247900
X84724Y229486
X114700Y221500
X118700Y262800
X143700Y273800
X155100Y238300
X181500Y239700
X208635Y241400
X192900Y270700
X195000Y314700
X175300Y305000
X220200Y267500
T02
X65900Y36900
X56977Y91100
X54705Y139272
X105000Y142500
Y147500
X102047Y152506
X101811Y163830
X102500Y126100
X117500Y132500
X112500Y93366
X182953Y87392
X182131Y73186
X147575Y147500
X155000Y158341
X154547Y172500
X135000Y183522
X132486Y186019
X132500Y197047
X137500Y197040
X128504Y215000
X165000Y207500
X67500Y202500
X60000Y215610
X50000Y162500
X40916Y152612
X27946Y148095
X27441Y144588
X51264Y140120
X25000Y185138
X51500Y257200
X130000Y242500
X145576Y222546
X152500Y265000
T03
X15700Y52500
X225700
X222170Y66100
X212170
Y126100
X222170
X222500Y147500
X212500
Y177500
X222500
Y197500
X212500
X202500
X192500
X182500
X172500
X162500
Y177500
X172500
X182500
X192500
X202500
Y147500
X192500
X182500
X172500
X162500
X162170Y126100
X172170
X182170
X192170
X202170
X152170
X142170
X132170
X122170
X112170
Y137500
X122170
X150000
X147500Y167500
Y177500
Y217500
X135000
Y207500
X105000
Y217500
X90000Y207500
Y197500
Y187500
Y177500
Y167500
Y157500
Y147500
X90551Y126100
Y116100
Y106100
Y96100
Y86100
Y76100
Y66100
X112170
X122170
X132170
X142170
X152170
X162170
X172170
X182170
X192170
X202170
X60551
Y76100
Y86100
Y96100
Y106100
Y116100
Y126100
X60000Y147500
Y157500
Y167500
Y177500
Y187500
Y197500
Y207500
X45000
Y197500
Y187500
Y177500
Y167500
Y157500
Y147500
X42500Y125000
X30000
Y95000
X42500
X47500Y76100
Y66100
X30000Y72500
X25000Y77500
Y67500
X15000Y147500
Y157500
Y167500
Y177500
Y187500
Y197500
Y207500
X20000Y237500
X30000
X40000
X50000
X45000Y222500
X35000
X40000Y267500
X50000
Y280000
X40000
X30000Y267500
X20000
X60000
X70000
X80000
X90000
X105000
Y257500
Y247500
Y237500
Y227500
X90000Y222500
X80000
Y237500
X90000
X70000
X60000
X135000
Y247500
Y257500
Y267500
Y282500
X125000
X165000Y260000
X175000
Y250000
X172500Y227500
X182500
X192500
X202500
X205000Y250000
X162500Y227500
X147500
X135000
X212500
X222500
T04
X165000Y276496
Y295000
Y313504
X215000Y305000
Y285000
M30
