G04*
G04 #@! TF.GenerationSoftware,Altium Limited,Altium Designer,21.2.2 (38)*
G04*
G04 Layer_Physical_Order=2*
G04 Layer_Color=16711680*
%FSLAX25Y25*%
%MOIN*%
G70*
G04*
G04 #@! TF.SameCoordinates,E3BFBCD1-F928-4CE0-802D-1F7584DAC0BA*
G04*
G04*
G04 #@! TF.FilePolarity,Positive*
G04*
G01*
G75*
G04:AMPARAMS|DCode=24|XSize=78.74mil|YSize=275.59mil|CornerRadius=19.68mil|HoleSize=0mil|Usage=FLASHONLY|Rotation=0.000|XOffset=0mil|YOffset=0mil|HoleType=Round|Shape=RoundedRectangle|*
%AMROUNDEDRECTD24*
21,1,0.07874,0.23622,0,0,0.0*
21,1,0.03937,0.27559,0,0,0.0*
1,1,0.03937,0.01968,-0.11811*
1,1,0.03937,-0.01968,-0.11811*
1,1,0.03937,-0.01968,0.11811*
1,1,0.03937,0.01968,0.11811*
%
%ADD24ROUNDEDRECTD24*%
%ADD25C,0.01575*%
%ADD26C,0.05906*%
%ADD27C,0.06299*%
%ADD28C,0.07087*%
%ADD29O,0.15748X0.13780*%
%ADD30C,0.05512*%
%ADD31O,0.06299X0.09843*%
%ADD32R,0.06299X0.09843*%
%ADD33R,0.09843X0.06299*%
%ADD34O,0.09843X0.06299*%
%ADD35C,0.01968*%
%ADD36C,0.15748*%
%ADD37C,0.02756*%
%ADD38C,0.05906*%
G36*
X77047Y271890D02*
X76561Y271257D01*
X76164Y270299D01*
X76029Y269272D01*
Y265728D01*
X76164Y264701D01*
X76322Y264321D01*
X73589Y261588D01*
X73241Y261067D01*
X73119Y260453D01*
X73119Y260453D01*
Y242465D01*
X72619Y242225D01*
X71986Y242711D01*
X71028Y243107D01*
X70000Y243243D01*
X68972Y243107D01*
X68015Y242711D01*
X67192Y242080D01*
X67079Y241932D01*
X66606Y242093D01*
Y262907D01*
X67079Y263068D01*
X67192Y262920D01*
X68015Y262289D01*
X68972Y261893D01*
X70000Y261757D01*
X71028Y261893D01*
X71986Y262289D01*
X72808Y262920D01*
X73439Y263743D01*
X73836Y264701D01*
X73971Y265728D01*
Y269272D01*
X73836Y270299D01*
X73439Y271257D01*
X72953Y271890D01*
X73193Y272390D01*
X76807D01*
X77047Y271890D01*
D02*
G37*
G36*
X229900Y326481D02*
X230067Y326480D01*
X230395Y326415D01*
X230704Y326287D01*
X230982Y326101D01*
X231219Y325865D01*
X231404Y325587D01*
X231533Y325278D01*
X231598Y324950D01*
X231598Y324783D01*
X231598Y272200D01*
X231603Y272175D01*
X231599Y272150D01*
X231612Y271876D01*
X231631Y271803D01*
Y271727D01*
X231738Y271191D01*
X231776Y271098D01*
X231796Y270999D01*
X232005Y270494D01*
X232061Y270410D01*
X232099Y270317D01*
X232403Y269862D01*
X232474Y269791D01*
X232530Y269708D01*
X232917Y269321D01*
X233001Y269265D01*
X233072Y269194D01*
X233527Y268890D01*
X233620Y268851D01*
X233703Y268796D01*
X234209Y268586D01*
X234307Y268567D01*
X234400Y268528D01*
X234937Y268421D01*
X235012D01*
X235086Y268403D01*
X235359Y268390D01*
X235384Y268393D01*
X235409Y268388D01*
X238497D01*
X238655Y268388D01*
X238966Y268327D01*
X239257Y268206D01*
X239520Y268030D01*
X239744Y267807D01*
X239919Y267544D01*
X240040Y267252D01*
X240102Y266942D01*
X240102Y266784D01*
X240102Y94700D01*
X240102Y94542D01*
X240040Y94232D01*
X239919Y93940D01*
X239744Y93677D01*
X239520Y93454D01*
X239257Y93278D01*
X238966Y93158D01*
X238656Y93096D01*
X238498Y93096D01*
X235409Y93096D01*
X235384Y93091D01*
X235359Y93095D01*
X235086Y93081D01*
X235012Y93063D01*
X234937D01*
X234400Y92956D01*
X234307Y92918D01*
X234209Y92898D01*
X233703Y92689D01*
X233620Y92633D01*
X233527Y92594D01*
X233072Y92290D01*
X233001Y92219D01*
X232917Y92163D01*
X232530Y91777D01*
X232474Y91693D01*
X232403Y91622D01*
X232099Y91167D01*
X232061Y91074D01*
X232005Y90991D01*
X231796Y90485D01*
X231776Y90386D01*
X231738Y90294D01*
X231631Y89757D01*
Y89681D01*
X231612Y89608D01*
X231599Y89334D01*
X231603Y89309D01*
X231598Y89284D01*
Y15822D01*
X230663D01*
Y19300D01*
X225700D01*
Y19800D01*
X225200D01*
Y34605D01*
X223731D01*
X222957Y34503D01*
X222234Y34204D01*
X221614Y33728D01*
X221139Y33108D01*
X220839Y32386D01*
X220438Y32340D01*
X220334Y32378D01*
X220076Y33001D01*
X219634Y33577D01*
X219058Y34018D01*
X218388Y34296D01*
X217669Y34391D01*
X217306D01*
Y35312D01*
X217183Y35926D01*
X216835Y36447D01*
X216835Y36447D01*
X203306Y49977D01*
X202785Y50325D01*
X202170Y50447D01*
X202170Y50447D01*
X201641D01*
X192223Y59865D01*
X192407Y60388D01*
X193198Y60493D01*
X194156Y60889D01*
X194978Y61520D01*
X195609Y62343D01*
X196006Y63301D01*
X196141Y64328D01*
Y67872D01*
X196006Y68899D01*
X195609Y69857D01*
X194978Y70680D01*
X194156Y71311D01*
X193198Y71707D01*
X192170Y71843D01*
X191142Y71707D01*
X190185Y71311D01*
X189551Y70825D01*
X189051Y71065D01*
Y82234D01*
X228030Y121213D01*
X228030Y121213D01*
X228378Y121734D01*
X228500Y122348D01*
X228500Y122348D01*
Y134652D01*
X228500Y134652D01*
X228378Y135267D01*
X228030Y135788D01*
X222747Y141071D01*
X222926Y141599D01*
X223583Y141685D01*
X224593Y142104D01*
X225460Y142769D01*
X226125Y143636D01*
X226543Y144645D01*
X226685Y145728D01*
Y147000D01*
X222500D01*
Y147500D01*
X222000D01*
Y153391D01*
X221417Y153314D01*
X220407Y152896D01*
X219541Y152231D01*
X219330Y151957D01*
X218830Y152127D01*
Y164323D01*
X218708Y164937D01*
X218360Y165458D01*
X218360Y165458D01*
X212553Y171265D01*
X212736Y171789D01*
X213528Y171893D01*
X214486Y172289D01*
X215308Y172920D01*
X215939Y173743D01*
X216336Y174701D01*
X216471Y175728D01*
Y179272D01*
X216336Y180299D01*
X215939Y181257D01*
X215308Y182080D01*
X214486Y182711D01*
X213528Y183107D01*
X212500Y183243D01*
X211472Y183107D01*
X210514Y182711D01*
X209692Y182080D01*
X209579Y181932D01*
X209106Y182093D01*
Y192907D01*
X209579Y193068D01*
X209692Y192920D01*
X210514Y192289D01*
X211472Y191893D01*
X212500Y191757D01*
X213528Y191893D01*
X214486Y192289D01*
X215308Y192920D01*
X215939Y193743D01*
X216336Y194701D01*
X216471Y195728D01*
Y199272D01*
X216336Y200299D01*
X215939Y201257D01*
X215308Y202080D01*
X214486Y202711D01*
X213528Y203107D01*
X212500Y203243D01*
X211472Y203107D01*
X210514Y202711D01*
X209692Y202080D01*
X209579Y201932D01*
X209106Y202093D01*
Y222598D01*
X209606Y222719D01*
X210407Y222104D01*
X211417Y221686D01*
X212000Y221609D01*
Y227500D01*
Y233391D01*
X211417Y233314D01*
X210407Y232896D01*
X209541Y232231D01*
X209330Y231957D01*
X208830Y232127D01*
Y234457D01*
X208708Y235071D01*
X208360Y235592D01*
X208360Y235592D01*
X177817Y266135D01*
X177296Y266483D01*
X176681Y266606D01*
X176681Y266606D01*
X153957D01*
X153727Y266836D01*
X152931Y267165D01*
X152069D01*
X151273Y266836D01*
X150664Y266227D01*
X150335Y265431D01*
Y264569D01*
X150664Y263773D01*
X151273Y263164D01*
X152069Y262835D01*
X152931D01*
X153727Y263164D01*
X153957Y263394D01*
X162119D01*
X162327Y262894D01*
X161850Y262417D01*
X161331Y261520D01*
X161063Y260518D01*
Y259482D01*
X161331Y258480D01*
X161850Y257583D01*
X162583Y256850D01*
X163480Y256331D01*
X164482Y256063D01*
X165518D01*
X166520Y256331D01*
X167417Y256850D01*
X168150Y257583D01*
X168669Y258480D01*
X168937Y259482D01*
Y260518D01*
X168669Y261520D01*
X168150Y262417D01*
X167673Y262894D01*
X167880Y263394D01*
X172119D01*
X172327Y262894D01*
X171850Y262417D01*
X171331Y261520D01*
X171063Y260518D01*
Y259482D01*
X171331Y258480D01*
X171850Y257583D01*
X172583Y256850D01*
X173480Y256331D01*
X174482Y256063D01*
X175518D01*
X176520Y256331D01*
X177417Y256850D01*
X178150Y257583D01*
X178669Y258480D01*
X178937Y259482D01*
Y259820D01*
X179399Y260012D01*
X205619Y233792D01*
Y232465D01*
X205119Y232225D01*
X204486Y232711D01*
X203528Y233107D01*
X202500Y233243D01*
X201472Y233107D01*
X200515Y232711D01*
X199692Y232080D01*
X199441Y231752D01*
X199019Y231766D01*
X198881Y231843D01*
X180643Y250081D01*
X180122Y250429D01*
X179508Y250551D01*
X179331Y250570D01*
X179036Y251672D01*
X178465Y252659D01*
X177659Y253465D01*
X176672Y254036D01*
X175570Y254331D01*
X174430D01*
X173328Y254036D01*
X172341Y253465D01*
X171535Y252659D01*
X170964Y251672D01*
X170669Y250570D01*
Y249430D01*
X170964Y248328D01*
X171535Y247341D01*
X172341Y246535D01*
X173328Y245964D01*
X174430Y245669D01*
X175570D01*
X176672Y245964D01*
X177659Y246535D01*
X178464Y247340D01*
X178842D01*
X192447Y233735D01*
X192264Y233211D01*
X191472Y233107D01*
X191013Y232917D01*
X188799Y235131D01*
X188278Y235479D01*
X187663Y235602D01*
X187663Y235602D01*
X180543D01*
X180543Y235602D01*
X179929Y235479D01*
X179408Y235131D01*
X179408Y235131D01*
X176640Y232364D01*
X176292Y231843D01*
X176257Y231664D01*
X175722Y231540D01*
X175308Y232080D01*
X174486Y232711D01*
X173528Y233107D01*
X172500Y233243D01*
X171472Y233107D01*
X170515Y232711D01*
X169692Y232080D01*
X169278Y231540D01*
X168743Y231664D01*
X168708Y231843D01*
X168360Y232364D01*
X168360Y232364D01*
X165592Y235131D01*
X165071Y235479D01*
X164457Y235602D01*
X164457Y235602D01*
X160543D01*
X159929Y235479D01*
X159408Y235131D01*
X159408Y235131D01*
X153863Y229586D01*
X153592Y229182D01*
X151899Y227488D01*
X151437Y227680D01*
Y228018D01*
X151272Y228632D01*
Y256772D01*
X151144Y257748D01*
X150767Y258658D01*
X150168Y259439D01*
X140274Y269333D01*
X140211Y269485D01*
X139580Y270308D01*
X138772Y270927D01*
Y281367D01*
X138937Y281982D01*
Y283018D01*
X138669Y284020D01*
X138150Y284917D01*
X137417Y285650D01*
X136520Y286169D01*
X135518Y286437D01*
X134482D01*
X133480Y286169D01*
X132583Y285650D01*
X131850Y284917D01*
X131331Y284020D01*
X131063Y283018D01*
Y281982D01*
X131228Y281367D01*
Y270927D01*
X130420Y270308D01*
X129789Y269485D01*
X129393Y268528D01*
X129257Y267500D01*
X129393Y266472D01*
X129789Y265514D01*
X130420Y264692D01*
X131243Y264061D01*
X132201Y263664D01*
X133228Y263529D01*
X135408D01*
X137021Y261916D01*
X136848Y261565D01*
X136759Y261471D01*
X133228D01*
X132201Y261336D01*
X131243Y260939D01*
X130420Y260308D01*
X129789Y259486D01*
X129393Y258528D01*
X129257Y257500D01*
X129393Y256472D01*
X129789Y255515D01*
X130420Y254692D01*
X131243Y254061D01*
X132201Y253664D01*
X133228Y253529D01*
X136772D01*
X137799Y253664D01*
X138179Y253822D01*
X139890Y252111D01*
Y250693D01*
X139390Y250453D01*
X138757Y250939D01*
X137799Y251336D01*
X136772Y251471D01*
X133228D01*
X132201Y251336D01*
X131243Y250939D01*
X130420Y250308D01*
X129789Y249485D01*
X129393Y248528D01*
X129257Y247500D01*
X129393Y246472D01*
X129789Y245514D01*
X130057Y245165D01*
X129811Y244665D01*
X129569D01*
X128773Y244336D01*
X128164Y243727D01*
X127835Y242931D01*
Y242286D01*
X127369Y241820D01*
X127021Y241299D01*
X126898Y240684D01*
X126898Y240684D01*
Y223494D01*
X124416Y221012D01*
X124068Y220491D01*
X123945Y219877D01*
X123945Y219877D01*
Y203996D01*
X123945Y203996D01*
X124068Y203382D01*
X124416Y202861D01*
X130335Y196942D01*
Y196616D01*
X130510Y196193D01*
X130176Y195693D01*
X104906D01*
X104906Y195693D01*
X104292Y195571D01*
X103771Y195223D01*
X103771Y195223D01*
X100676Y192128D01*
X100610Y192029D01*
X100110Y192181D01*
Y204032D01*
X100610Y204279D01*
X101136Y203875D01*
X102145Y203457D01*
X103228Y203315D01*
X104500D01*
Y207500D01*
Y211685D01*
X103228D01*
X102145Y211543D01*
X101136Y211125D01*
X100610Y210721D01*
X100110Y210968D01*
Y212110D01*
X101821Y213822D01*
X102201Y213664D01*
X103228Y213529D01*
X106772D01*
X107799Y213664D01*
X108757Y214061D01*
X109580Y214692D01*
X110211Y215514D01*
X110607Y216472D01*
X110743Y217500D01*
X110607Y218528D01*
X110211Y219485D01*
X109580Y220308D01*
X108757Y220939D01*
X107799Y221336D01*
X106772Y221471D01*
X103228D01*
X102201Y221336D01*
X101243Y220939D01*
X100420Y220308D01*
X99789Y219485D01*
X99393Y218528D01*
X99257Y217500D01*
X99393Y216472D01*
X99550Y216092D01*
X97369Y213911D01*
X97021Y213390D01*
X96898Y212776D01*
X96898Y212775D01*
Y185297D01*
X96436Y185106D01*
X95450Y186092D01*
X95607Y186472D01*
X95743Y187500D01*
X95607Y188528D01*
X95211Y189486D01*
X94580Y190308D01*
X93757Y190939D01*
X92799Y191336D01*
X91772Y191471D01*
X88228D01*
X87201Y191336D01*
X86243Y190939D01*
X85610Y190453D01*
X85110Y190693D01*
Y194307D01*
X85610Y194547D01*
X86243Y194061D01*
X87201Y193664D01*
X88228Y193529D01*
X91772D01*
X92799Y193664D01*
X93757Y194061D01*
X94580Y194692D01*
X95211Y195515D01*
X95607Y196472D01*
X95743Y197500D01*
X95607Y198528D01*
X95211Y199486D01*
X94580Y200308D01*
X93757Y200939D01*
X92799Y201336D01*
X91772Y201471D01*
X88228D01*
X87201Y201336D01*
X86243Y200939D01*
X85610Y200453D01*
X85110Y200693D01*
Y204307D01*
X85610Y204547D01*
X86243Y204061D01*
X87201Y203664D01*
X88228Y203529D01*
X91772D01*
X92799Y203664D01*
X93757Y204061D01*
X94580Y204692D01*
X95211Y205515D01*
X95607Y206472D01*
X95743Y207500D01*
X95607Y208528D01*
X95211Y209486D01*
X94580Y210308D01*
X93757Y210939D01*
X92799Y211336D01*
X91772Y211471D01*
X88496D01*
X88289Y211971D01*
X89912Y213594D01*
X90317Y213865D01*
X96135Y219683D01*
X96135Y219683D01*
X96483Y220204D01*
X96606Y220819D01*
X96606Y220819D01*
Y255288D01*
X98765Y257447D01*
X99288Y257264D01*
X99393Y256472D01*
X99789Y255515D01*
X100420Y254692D01*
X101243Y254061D01*
X102201Y253664D01*
X103228Y253529D01*
X106772D01*
X107799Y253664D01*
X108757Y254061D01*
X109580Y254692D01*
X110211Y255515D01*
X110607Y256472D01*
X110743Y257500D01*
X110607Y258528D01*
X110450Y258908D01*
X113635Y262093D01*
X113983Y262614D01*
X114106Y263228D01*
X114106Y263228D01*
Y270298D01*
X114106Y270298D01*
X113983Y270912D01*
X113635Y271433D01*
X109937Y275131D01*
X109416Y275480D01*
X108802Y275602D01*
X108802Y275602D01*
X68043D01*
X68043Y275602D01*
X67429Y275480D01*
X66908Y275131D01*
X66908Y275131D01*
X64140Y272364D01*
X63792Y271843D01*
X63757Y271665D01*
X63222Y271540D01*
X62808Y272080D01*
X61985Y272711D01*
X61028Y273107D01*
X60000Y273243D01*
X58972Y273107D01*
X58015Y272711D01*
X57192Y272080D01*
X56561Y271257D01*
X56164Y270299D01*
X56029Y269272D01*
Y265728D01*
X56164Y264701D01*
X56561Y263743D01*
X57192Y262920D01*
X58015Y262289D01*
X58972Y261893D01*
X60000Y261757D01*
X61028Y261893D01*
X61985Y262289D01*
X62808Y262920D01*
X62921Y263068D01*
X63394Y262907D01*
Y242093D01*
X62921Y241932D01*
X62808Y242080D01*
X61985Y242711D01*
X61028Y243107D01*
X60000Y243243D01*
X58972Y243107D01*
X58015Y242711D01*
X57192Y242080D01*
X56561Y241257D01*
X56164Y240299D01*
X56029Y239272D01*
Y235728D01*
X56164Y234701D01*
X56561Y233743D01*
X57192Y232920D01*
X58015Y232289D01*
X58394Y232132D01*
Y217067D01*
X58164Y216837D01*
X57835Y216041D01*
Y215179D01*
X58072Y214606D01*
X57789Y214106D01*
X54702D01*
X54702Y214106D01*
X54088Y213983D01*
X53567Y213635D01*
X53567Y213635D01*
X50838Y210907D01*
X50490Y210386D01*
X50420Y210034D01*
X49885Y209909D01*
X49580Y210308D01*
X48757Y210939D01*
X47799Y211336D01*
X46772Y211471D01*
X43228D01*
X42201Y211336D01*
X41746Y211147D01*
X41330Y211425D01*
Y219983D01*
X41830Y220116D01*
X41850Y220083D01*
X42583Y219350D01*
X43480Y218831D01*
X44482Y218563D01*
X45518D01*
X46520Y218831D01*
X47417Y219350D01*
X48150Y220083D01*
X48669Y220980D01*
X48937Y221982D01*
Y223018D01*
X48669Y224020D01*
X48150Y224917D01*
X47417Y225650D01*
X46520Y226169D01*
X45518Y226437D01*
X44482D01*
X43480Y226169D01*
X42583Y225650D01*
X41850Y224917D01*
X41830Y224884D01*
X41330Y225017D01*
Y226004D01*
X41208Y226618D01*
X40860Y227139D01*
X40860Y227139D01*
X33678Y234321D01*
X33836Y234701D01*
X33971Y235728D01*
Y239272D01*
X33836Y240299D01*
X33439Y241257D01*
X32808Y242080D01*
X31986Y242711D01*
X31028Y243107D01*
X30000Y243243D01*
X28972Y243107D01*
X28014Y242711D01*
X27192Y242080D01*
X26561Y241257D01*
X26164Y240299D01*
X26029Y239272D01*
Y235728D01*
X26164Y234701D01*
X26561Y233743D01*
X27192Y232920D01*
X28014Y232289D01*
X28972Y231893D01*
X30000Y231757D01*
X31028Y231893D01*
X31408Y232050D01*
X36563Y226895D01*
X36304Y226447D01*
X35546Y226650D01*
X35500D01*
Y222500D01*
Y218350D01*
X35546D01*
X36602Y218633D01*
X37548Y219180D01*
X37657Y219288D01*
X38119Y219097D01*
Y211343D01*
X36365Y209588D01*
X36017Y209067D01*
X35894Y208453D01*
X35894Y208453D01*
Y162490D01*
X22858Y149454D01*
X22510Y148933D01*
X22388Y148319D01*
X22388Y148319D01*
Y123506D01*
X22388Y123506D01*
X22510Y122892D01*
X22858Y122371D01*
X26234Y118996D01*
X26234Y118996D01*
X26755Y118648D01*
X26951Y118608D01*
X27266Y118398D01*
X27880Y118276D01*
X32120D01*
X32120Y118276D01*
X32734Y118398D01*
X33255Y118746D01*
X37978Y123469D01*
X38286Y123387D01*
X38494Y123278D01*
X39035Y122341D01*
X39841Y121535D01*
X40828Y120964D01*
X41930Y120669D01*
X43070D01*
X44172Y120964D01*
X45159Y121535D01*
X45965Y122341D01*
X46536Y123328D01*
X46831Y124430D01*
Y125570D01*
X46536Y126672D01*
X45965Y127659D01*
X45159Y128465D01*
X44172Y129036D01*
X43070Y129331D01*
X42570D01*
X42363Y129831D01*
X47974Y135442D01*
X52974D01*
X52974Y135442D01*
X53589Y135564D01*
X54110Y135912D01*
X54169Y135971D01*
X54397Y136017D01*
X54918Y136365D01*
X55266Y136885D01*
X55325Y137186D01*
X55931Y137437D01*
X56540Y138046D01*
X56870Y138842D01*
Y139703D01*
X56540Y140499D01*
X55931Y141108D01*
X55135Y141438D01*
X54274D01*
X53702Y141200D01*
X53100Y141347D01*
X52491Y141956D01*
X51695Y142285D01*
X50834D01*
X50038Y141956D01*
X49688Y141606D01*
X45000D01*
X44385Y141483D01*
X43865Y141135D01*
X43865Y141135D01*
X31731Y129001D01*
X31672Y129036D01*
X30570Y129331D01*
X29430D01*
X28328Y129036D01*
X27341Y128465D01*
X26535Y127659D01*
X26099Y126905D01*
X25599Y127039D01*
Y142660D01*
X26099Y142867D01*
X26214Y142752D01*
X27010Y142423D01*
X27871D01*
X28667Y142752D01*
X28897Y142982D01*
X32088D01*
X32088Y142982D01*
X32702Y143105D01*
X33223Y143453D01*
X37977Y148207D01*
X38116D01*
X38116Y148207D01*
X38731Y148329D01*
X38875Y148425D01*
X39341Y148135D01*
X39257Y147500D01*
X39393Y146472D01*
X39789Y145515D01*
X40420Y144692D01*
X41243Y144061D01*
X42201Y143664D01*
X43228Y143529D01*
X46772D01*
X47799Y143664D01*
X48757Y144061D01*
X49580Y144692D01*
X50211Y145515D01*
X50607Y146472D01*
X50743Y147500D01*
X50607Y148528D01*
X50211Y149486D01*
X49580Y150308D01*
X48757Y150939D01*
X47799Y151336D01*
X46772Y151471D01*
X43328D01*
X42946Y151854D01*
X43081Y152181D01*
Y153043D01*
X43058Y153100D01*
X43421Y153529D01*
X46772D01*
X47799Y153664D01*
X48757Y154061D01*
X49580Y154692D01*
X50211Y155515D01*
X50607Y156472D01*
X50743Y157500D01*
X51187Y157942D01*
X51223D01*
X51223Y157942D01*
X51837Y158064D01*
X52358Y158412D01*
X54639Y160693D01*
X54639Y160693D01*
X54987Y161214D01*
X55110Y161828D01*
X55110Y161828D01*
Y164307D01*
X55610Y164547D01*
X56243Y164061D01*
X57201Y163664D01*
X58228Y163529D01*
X58394D01*
Y161471D01*
X58228D01*
X57201Y161336D01*
X56243Y160939D01*
X55420Y160308D01*
X54789Y159485D01*
X54393Y158528D01*
X54257Y157500D01*
X54393Y156472D01*
X54789Y155515D01*
X55420Y154692D01*
X56243Y154061D01*
X57201Y153664D01*
X58228Y153529D01*
X61772D01*
X62799Y153664D01*
X63757Y154061D01*
X64580Y154692D01*
X65211Y155515D01*
X65607Y156472D01*
X65743Y157500D01*
X65607Y158528D01*
X65211Y159485D01*
X64580Y160308D01*
X63757Y160939D01*
X62799Y161336D01*
X61772Y161471D01*
X61606D01*
Y163529D01*
X61772D01*
X62799Y163664D01*
X63757Y164061D01*
X64580Y164692D01*
X65211Y165515D01*
X65607Y166472D01*
X65743Y167500D01*
X65607Y168528D01*
X65450Y168908D01*
X65776Y169234D01*
X65842Y169278D01*
X75584Y179020D01*
X75932Y179541D01*
X76055Y180155D01*
X76055Y180155D01*
Y219609D01*
X76186Y219806D01*
X76448Y219884D01*
X76730Y219901D01*
X77452Y219180D01*
X78398Y218633D01*
X79454Y218350D01*
X79500D01*
Y222500D01*
Y226650D01*
X79454D01*
X78398Y226367D01*
X77452Y225820D01*
X76830Y225199D01*
X76330Y225406D01*
Y233223D01*
X76830Y233392D01*
X77192Y232920D01*
X78014Y232289D01*
X78972Y231893D01*
X80000Y231757D01*
X81028Y231893D01*
X81985Y232289D01*
X82808Y232920D01*
X83439Y233743D01*
X83836Y234701D01*
X83971Y235728D01*
Y239272D01*
X83836Y240299D01*
X83439Y241257D01*
X82808Y242080D01*
X81985Y242711D01*
X81028Y243107D01*
X80000Y243243D01*
X78972Y243107D01*
X78014Y242711D01*
X77192Y242080D01*
X76830Y241608D01*
X76330Y241777D01*
Y259788D01*
X78592Y262050D01*
X78972Y261893D01*
X80000Y261757D01*
X81028Y261893D01*
X81985Y262289D01*
X82808Y262920D01*
X83439Y263743D01*
X83836Y264701D01*
X83971Y265728D01*
Y269272D01*
X83836Y270299D01*
X83439Y271257D01*
X82953Y271890D01*
X83193Y272390D01*
X86063D01*
Y261791D01*
X93937D01*
Y272390D01*
X108137D01*
X108628Y271899D01*
X108437Y271437D01*
X99291D01*
Y263563D01*
X99632D01*
X99839Y263063D01*
X93865Y257088D01*
X93517Y256567D01*
X93394Y255953D01*
X93394Y255953D01*
Y242093D01*
X92921Y241932D01*
X92808Y242080D01*
X91985Y242711D01*
X91028Y243107D01*
X90000Y243243D01*
X88972Y243107D01*
X88015Y242711D01*
X87192Y242080D01*
X86561Y241257D01*
X86164Y240299D01*
X86029Y239272D01*
Y235728D01*
X86164Y234701D01*
X86561Y233743D01*
X87192Y232920D01*
X88015Y232289D01*
X88972Y231893D01*
X90000Y231757D01*
X91028Y231893D01*
X91985Y232289D01*
X92808Y232920D01*
X92921Y233068D01*
X93394Y232907D01*
Y225380D01*
X92894Y225173D01*
X92417Y225650D01*
X91520Y226169D01*
X90518Y226437D01*
X89482D01*
X88480Y226169D01*
X87583Y225650D01*
X86850Y224917D01*
X86331Y224020D01*
X86063Y223018D01*
Y221982D01*
X86331Y220980D01*
X86850Y220083D01*
X87583Y219350D01*
X88480Y218831D01*
X89482Y218563D01*
X89820D01*
X90012Y218101D01*
X88316Y216406D01*
X87912Y216135D01*
X87912Y216135D01*
X82369Y210592D01*
X82020Y210071D01*
X81898Y209457D01*
X81898Y209457D01*
Y162224D01*
X81898Y162224D01*
X82020Y161610D01*
X82369Y161089D01*
X84550Y158908D01*
X84393Y158528D01*
X84257Y157500D01*
X84393Y156472D01*
X84789Y155515D01*
X85420Y154692D01*
X86243Y154061D01*
X87201Y153664D01*
X88228Y153529D01*
X91772D01*
X92799Y153664D01*
X93757Y154061D01*
X94390Y154547D01*
X94890Y154307D01*
Y152890D01*
X93179Y151178D01*
X92799Y151336D01*
X91772Y151471D01*
X88228D01*
X87201Y151336D01*
X86243Y150939D01*
X85420Y150308D01*
X84789Y149486D01*
X84393Y148528D01*
X84257Y147500D01*
X84393Y146472D01*
X84789Y145515D01*
X85420Y144692D01*
X86243Y144061D01*
X87201Y143664D01*
X88228Y143529D01*
X91772D01*
X92799Y143664D01*
X93757Y144061D01*
X94580Y144692D01*
X95211Y145515D01*
X95607Y146472D01*
X95743Y147500D01*
X95607Y148528D01*
X95450Y148908D01*
X96791Y150248D01*
X97253Y150057D01*
Y114831D01*
X96791Y114639D01*
X96182Y115248D01*
X96294Y116100D01*
X96158Y117128D01*
X95762Y118086D01*
X95131Y118908D01*
X94308Y119539D01*
X93351Y119936D01*
X92323Y120071D01*
X88779D01*
X87752Y119936D01*
X86794Y119539D01*
X85972Y118908D01*
X85341Y118086D01*
X84944Y117128D01*
X84809Y116100D01*
X84944Y115072D01*
X85341Y114114D01*
X85972Y113292D01*
X86794Y112661D01*
X87752Y112264D01*
X88779Y112129D01*
X92323D01*
X93351Y112264D01*
X94251Y112637D01*
X105840Y101049D01*
Y97456D01*
X105378Y97264D01*
X96256Y106386D01*
X96158Y107128D01*
X95762Y108086D01*
X95131Y108908D01*
X94308Y109539D01*
X93351Y109936D01*
X92323Y110071D01*
X88779D01*
X87752Y109936D01*
X86794Y109539D01*
X85972Y108908D01*
X85341Y108086D01*
X84944Y107128D01*
X84809Y106100D01*
X84944Y105072D01*
X85341Y104114D01*
X85972Y103292D01*
X86794Y102661D01*
X87752Y102264D01*
X88779Y102129D01*
X92323D01*
X93351Y102264D01*
X94308Y102661D01*
X94949Y103152D01*
X103394Y94707D01*
Y89530D01*
X102932Y89338D01*
X96280Y95991D01*
X96294Y96100D01*
X96158Y97128D01*
X95762Y98085D01*
X95131Y98908D01*
X94308Y99539D01*
X93351Y99936D01*
X92323Y100071D01*
X88779D01*
X87752Y99936D01*
X86794Y99539D01*
X85972Y98908D01*
X85341Y98085D01*
X84944Y97128D01*
X84809Y96100D01*
X84944Y95072D01*
X85341Y94115D01*
X85972Y93292D01*
X86794Y92661D01*
X87752Y92264D01*
X88779Y92129D01*
X92323D01*
X93351Y92264D01*
X94308Y92661D01*
X94738Y92991D01*
X100894Y86835D01*
Y84530D01*
X100432Y84338D01*
X98439Y86331D01*
X97918Y86680D01*
X97304Y86802D01*
X97304Y86802D01*
X96201D01*
X96158Y87128D01*
X95762Y88086D01*
X95131Y88908D01*
X94308Y89539D01*
X93351Y89936D01*
X92323Y90071D01*
X88779D01*
X87752Y89936D01*
X86794Y89539D01*
X85972Y88908D01*
X85341Y88086D01*
X84944Y87128D01*
X84809Y86100D01*
X84944Y85072D01*
X85341Y84114D01*
X85826Y83481D01*
X85586Y82981D01*
X77712D01*
X66001Y94692D01*
X66158Y95072D01*
X66294Y96100D01*
X66158Y97128D01*
X65762Y98085D01*
X65131Y98908D01*
X64308Y99539D01*
X63351Y99936D01*
X62323Y100071D01*
X58780D01*
X57752Y99936D01*
X56794Y99539D01*
X55972Y98908D01*
X55341Y98085D01*
X54944Y97128D01*
X54809Y96100D01*
X54944Y95072D01*
X55341Y94115D01*
X55811Y93502D01*
X55754Y92970D01*
X55692Y92877D01*
X55141Y92327D01*
X54812Y91531D01*
Y91084D01*
X52920Y89192D01*
X52572Y88671D01*
X52450Y88057D01*
X52450Y88057D01*
Y61202D01*
X52450Y61202D01*
X52572Y60588D01*
X52920Y60067D01*
X54094Y58892D01*
Y54619D01*
X53594Y54412D01*
X53324Y54682D01*
X52700Y54941D01*
Y53000D01*
Y51059D01*
X53324Y51318D01*
X53594Y51588D01*
X54094Y51381D01*
Y34391D01*
X53732D01*
X53012Y34296D01*
X52342Y34018D01*
X51766Y33577D01*
X51324Y33001D01*
X51047Y32331D01*
X50952Y31611D01*
Y15822D01*
X50448D01*
Y31611D01*
X50353Y32331D01*
X50076Y33001D01*
X49634Y33577D01*
X49058Y34018D01*
X48388Y34296D01*
X47668Y34391D01*
X47306D01*
Y39300D01*
X47306Y39300D01*
X47183Y39915D01*
X46835Y40435D01*
X26606Y60665D01*
Y64336D01*
X27176Y64665D01*
X27835Y65324D01*
X28302Y66132D01*
X28543Y67033D01*
Y67967D01*
X28320Y68801D01*
X28485Y69015D01*
X28699Y69180D01*
X29533Y68957D01*
X30466D01*
X31368Y69198D01*
X32176Y69665D01*
X32835Y70324D01*
X33302Y71132D01*
X33543Y72034D01*
Y72966D01*
X33302Y73868D01*
X32835Y74676D01*
X32176Y75335D01*
X31368Y75802D01*
X30466Y76043D01*
X29533D01*
X28699Y75820D01*
X28485Y75985D01*
X28320Y76199D01*
X28543Y77034D01*
Y77966D01*
X28302Y78868D01*
X27835Y79676D01*
X27176Y80335D01*
X26368Y80802D01*
X25466Y81043D01*
X24533D01*
X23632Y80802D01*
X22824Y80335D01*
X22165Y79676D01*
X21698Y78868D01*
X21457Y77966D01*
Y77034D01*
X21698Y76132D01*
X22165Y75324D01*
X22824Y74665D01*
X23632Y74198D01*
X24533Y73957D01*
X25466D01*
X26301Y74180D01*
X26515Y74015D01*
X26680Y73801D01*
X26457Y72966D01*
Y72034D01*
X26680Y71199D01*
X26515Y70985D01*
X26301Y70820D01*
X25466Y71043D01*
X24533D01*
X23632Y70802D01*
X22824Y70335D01*
X22165Y69676D01*
X21698Y68868D01*
X21457Y67967D01*
Y67033D01*
X21698Y66132D01*
X22165Y65324D01*
X22824Y64665D01*
X23394Y64336D01*
Y60000D01*
X23394Y60000D01*
X23517Y59386D01*
X23865Y58865D01*
X44094Y38635D01*
Y34391D01*
X43731D01*
X43012Y34296D01*
X42342Y34018D01*
X41766Y33577D01*
X41324Y33001D01*
X41047Y32331D01*
X40952Y31611D01*
Y15822D01*
X40448D01*
Y31611D01*
X40354Y32331D01*
X40076Y33001D01*
X39634Y33577D01*
X39058Y34018D01*
X38388Y34296D01*
X37668Y34391D01*
X33731D01*
X33012Y34296D01*
X32342Y34018D01*
X31766Y33577D01*
X31324Y33001D01*
X31047Y32331D01*
X30952Y31611D01*
Y15822D01*
X30448D01*
Y31611D01*
X30354Y32331D01*
X30076Y33001D01*
X29634Y33577D01*
X29058Y34018D01*
X28388Y34296D01*
X27668Y34391D01*
X23731D01*
X23012Y34296D01*
X22342Y34018D01*
X21766Y33577D01*
X21324Y33001D01*
X21066Y32378D01*
X20962Y32340D01*
X20561Y32386D01*
X20261Y33108D01*
X19786Y33728D01*
X19166Y34204D01*
X18443Y34503D01*
X17669Y34605D01*
X16200D01*
Y19800D01*
X15700D01*
Y19300D01*
X10737D01*
Y15822D01*
X9619D01*
Y89384D01*
X9615Y89409D01*
X9618Y89434D01*
X9605Y89708D01*
X9586Y89781D01*
Y89857D01*
X9480Y90394D01*
X9441Y90486D01*
X9422Y90585D01*
X9212Y91091D01*
X9156Y91174D01*
X9118Y91267D01*
X8814Y91722D01*
X8743Y91793D01*
X8687Y91877D01*
X8300Y92264D01*
X8217Y92319D01*
X8146Y92390D01*
X7690Y92694D01*
X7598Y92733D01*
X7514Y92789D01*
X7008Y92998D01*
X6910Y93018D01*
X6817Y93056D01*
X6280Y93163D01*
X6205D01*
X6132Y93181D01*
X5858Y93195D01*
X5833Y93191D01*
X5808Y93196D01*
X2720Y93196D01*
X2562Y93196D01*
X2252Y93258D01*
X1960Y93379D01*
X1697Y93554D01*
X1474Y93778D01*
X1298Y94040D01*
X1177Y94332D01*
X1116Y94642D01*
X1116Y94800D01*
X1116Y266884D01*
X1116Y267042D01*
X1177Y267352D01*
X1298Y267644D01*
X1474Y267907D01*
X1697Y268130D01*
X1960Y268306D01*
X2252Y268427D01*
X2562Y268488D01*
X2720Y268488D01*
X5808Y268488D01*
X5833Y268493D01*
X5858Y268490D01*
X6132Y268503D01*
X6205Y268521D01*
X6280D01*
X6817Y268628D01*
X6910Y268667D01*
X7008Y268686D01*
X7514Y268896D01*
X7598Y268951D01*
X7690Y268990D01*
X8146Y269294D01*
X8217Y269365D01*
X8300Y269421D01*
X8687Y269808D01*
X8743Y269891D01*
X8814Y269962D01*
X9118Y270417D01*
X9156Y270510D01*
X9212Y270594D01*
X9422Y271099D01*
X9441Y271198D01*
X9480Y271291D01*
X9586Y271827D01*
Y271903D01*
X9605Y271976D01*
X9618Y272250D01*
X9615Y272275D01*
X9619Y272300D01*
Y324900D01*
Y325056D01*
X9680Y325361D01*
X9799Y325649D01*
X9972Y325907D01*
X10193Y326128D01*
X10451Y326301D01*
X10739Y326420D01*
X11044Y326481D01*
X11200D01*
X229900Y326481D01*
D02*
G37*
G36*
X158529Y229004D02*
Y225728D01*
X158664Y224701D01*
X158728Y224548D01*
Y217237D01*
X144833Y203342D01*
X144233Y202561D01*
X143856Y201651D01*
X143728Y200675D01*
Y190878D01*
X143266Y190686D01*
X138737Y195215D01*
X139336Y195814D01*
X139665Y196609D01*
Y197471D01*
X139336Y198267D01*
X138727Y198876D01*
X137931Y199206D01*
X137605D01*
X134271Y202540D01*
X133750Y202888D01*
X133679Y203029D01*
X133987Y203529D01*
X136772D01*
X137799Y203664D01*
X138757Y204061D01*
X139580Y204692D01*
X140211Y205515D01*
X140607Y206472D01*
X140743Y207500D01*
X140607Y208528D01*
X141043Y208782D01*
X141507Y208318D01*
X142131Y208059D01*
Y210000D01*
Y211941D01*
X141507Y211682D01*
X140949Y211124D01*
X140647Y210395D01*
Y209702D01*
X140400Y209579D01*
X140181Y209525D01*
X139580Y210308D01*
X138757Y210939D01*
X137799Y211336D01*
X136772Y211471D01*
X136606D01*
Y213529D01*
X136772D01*
X137799Y213664D01*
X138757Y214061D01*
X139580Y214692D01*
X140211Y215514D01*
X140607Y216472D01*
X140743Y217500D01*
X140607Y218528D01*
X140211Y219485D01*
X139580Y220308D01*
X139287Y220532D01*
X139255Y221031D01*
X142631Y224408D01*
X142631Y224408D01*
X142980Y224929D01*
X143102Y225543D01*
X143102Y225543D01*
Y226771D01*
X143602Y226837D01*
X143831Y225980D01*
X144350Y225083D01*
X144527Y224905D01*
X144430Y224414D01*
X144350Y224381D01*
X143740Y223772D01*
X143411Y222976D01*
Y222115D01*
X143740Y221319D01*
X144242Y220817D01*
X144344Y220212D01*
X144179Y220048D01*
X143633Y219102D01*
X143350Y218046D01*
Y218000D01*
X147500D01*
X151650D01*
Y218046D01*
X151367Y219102D01*
X150821Y220048D01*
X150181Y220688D01*
X150163Y221172D01*
X150207Y221306D01*
X150362Y221410D01*
X156133Y227181D01*
X156133Y227181D01*
X156404Y227586D01*
X158029Y229211D01*
X158529Y229004D01*
D02*
G37*
G36*
X188789Y230600D02*
X188664Y230299D01*
X188529Y229272D01*
Y225728D01*
X188664Y224701D01*
X189061Y223743D01*
X189692Y222920D01*
X190515Y222289D01*
X191472Y221893D01*
X192500Y221757D01*
X193528Y221893D01*
X194485Y222289D01*
X195308Y222920D01*
X195722Y223460D01*
X196257Y223336D01*
X196292Y223157D01*
X196640Y222636D01*
X200894Y218382D01*
Y202868D01*
X200515Y202711D01*
X199692Y202080D01*
X199061Y201257D01*
X198664Y200299D01*
X198529Y199272D01*
Y195728D01*
X198664Y194701D01*
X199061Y193743D01*
X199692Y192920D01*
X200515Y192289D01*
X201472Y191893D01*
X202500Y191757D01*
X203528Y191893D01*
X204486Y192289D01*
X205308Y192920D01*
X205421Y193068D01*
X205894Y192907D01*
Y182093D01*
X205421Y181932D01*
X205308Y182080D01*
X204486Y182711D01*
X203528Y183107D01*
X202500Y183243D01*
X201472Y183107D01*
X200515Y182711D01*
X199692Y182080D01*
X199061Y181257D01*
X198664Y180299D01*
X198529Y179272D01*
Y175728D01*
X198664Y174701D01*
X199061Y173743D01*
X199692Y172920D01*
X200515Y172289D01*
X201472Y171893D01*
X202500Y171757D01*
X203528Y171893D01*
X204486Y172289D01*
X205308Y172920D01*
X205573Y173266D01*
X205587Y173271D01*
X206163Y173214D01*
X206365Y172912D01*
X215619Y163657D01*
Y152465D01*
X215119Y152225D01*
X214486Y152711D01*
X213528Y153107D01*
X212500Y153243D01*
X211472Y153107D01*
X210514Y152711D01*
X209692Y152080D01*
X209061Y151257D01*
X208664Y150299D01*
X208529Y149272D01*
Y145728D01*
X208664Y144701D01*
X209061Y143743D01*
X209692Y142920D01*
X210514Y142289D01*
X210894Y142132D01*
Y135156D01*
X210894Y135156D01*
X211017Y134541D01*
X211365Y134021D01*
X213170Y132215D01*
X212936Y131742D01*
X212170Y131843D01*
X211142Y131707D01*
X210185Y131311D01*
X209362Y130680D01*
X209000Y130208D01*
X208500Y130377D01*
Y130761D01*
X208500Y130761D01*
X208378Y131376D01*
X208030Y131897D01*
X204106Y135821D01*
Y142132D01*
X204486Y142289D01*
X205308Y142920D01*
X205939Y143743D01*
X206336Y144701D01*
X206471Y145728D01*
Y149272D01*
X206336Y150299D01*
X205939Y151257D01*
X205308Y152080D01*
X204486Y152711D01*
X203528Y153107D01*
X202500Y153243D01*
X201472Y153107D01*
X200515Y152711D01*
X199692Y152080D01*
X199418Y151722D01*
X199299Y151698D01*
X198827Y151774D01*
X198581Y152143D01*
X184106Y166618D01*
Y172132D01*
X184485Y172289D01*
X185308Y172920D01*
X185939Y173743D01*
X186336Y174701D01*
X186471Y175728D01*
Y179272D01*
X186336Y180299D01*
X185939Y181257D01*
X185308Y182080D01*
X184485Y182711D01*
X183528Y183107D01*
X182736Y183212D01*
X182553Y183735D01*
X183635Y184818D01*
X183635Y184818D01*
X183983Y185338D01*
X184106Y185953D01*
Y192132D01*
X184485Y192289D01*
X185308Y192920D01*
X185939Y193743D01*
X186336Y194701D01*
X186471Y195728D01*
Y199272D01*
X186336Y200299D01*
X185939Y201257D01*
X185308Y202080D01*
X184485Y202711D01*
X183528Y203107D01*
X182500Y203243D01*
X181472Y203107D01*
X180515Y202711D01*
X179692Y202080D01*
X179061Y201257D01*
X178664Y200299D01*
X178529Y199272D01*
Y195728D01*
X178664Y194701D01*
X179061Y193743D01*
X179692Y192920D01*
X180515Y192289D01*
X180894Y192132D01*
Y186618D01*
X176640Y182364D01*
X176292Y181843D01*
X176257Y181665D01*
X175722Y181540D01*
X175308Y182080D01*
X174486Y182711D01*
X173528Y183107D01*
X172736Y183212D01*
X172553Y183735D01*
X173635Y184818D01*
X173635Y184818D01*
X173983Y185338D01*
X174106Y185953D01*
X174106Y185953D01*
Y192132D01*
X174486Y192289D01*
X175308Y192920D01*
X175939Y193743D01*
X176336Y194701D01*
X176471Y195728D01*
Y199272D01*
X176336Y200299D01*
X175939Y201257D01*
X175308Y202080D01*
X174486Y202711D01*
X173528Y203107D01*
X172500Y203243D01*
X171472Y203107D01*
X170515Y202711D01*
X169692Y202080D01*
X169061Y201257D01*
X168664Y200299D01*
X168529Y199272D01*
Y195728D01*
X168664Y194701D01*
X169061Y193743D01*
X169692Y192920D01*
X170515Y192289D01*
X170894Y192132D01*
Y186618D01*
X166365Y182088D01*
X166163Y181787D01*
X165587Y181729D01*
X165573Y181735D01*
X165308Y182080D01*
X164486Y182711D01*
X163528Y183107D01*
X162500Y183243D01*
X161472Y183107D01*
X160514Y182711D01*
X159692Y182080D01*
X159579Y181932D01*
X159106Y182093D01*
Y191791D01*
X166437D01*
Y200938D01*
X173084Y207585D01*
X173084Y207585D01*
X173432Y208106D01*
X173555Y208720D01*
X173555Y208720D01*
Y216963D01*
X178911Y222319D01*
X179196Y222746D01*
X179448Y222834D01*
X179541Y222850D01*
X179772Y222859D01*
X180515Y222289D01*
X180894Y222132D01*
Y209272D01*
X180894Y209272D01*
X181017Y208657D01*
X181365Y208136D01*
X188822Y200679D01*
X188664Y200299D01*
X188529Y199272D01*
Y195728D01*
X188664Y194701D01*
X189061Y193743D01*
X189692Y192920D01*
X190515Y192289D01*
X191472Y191893D01*
X192500Y191757D01*
X193528Y191893D01*
X194485Y192289D01*
X195308Y192920D01*
X195939Y193743D01*
X196336Y194701D01*
X196471Y195728D01*
Y199272D01*
X196336Y200299D01*
X195939Y201257D01*
X195308Y202080D01*
X194485Y202711D01*
X193528Y203107D01*
X192500Y203243D01*
X191472Y203107D01*
X191092Y202950D01*
X184106Y209937D01*
Y222132D01*
X184485Y222289D01*
X185308Y222920D01*
X185939Y223743D01*
X186336Y224701D01*
X186471Y225728D01*
Y229272D01*
X186336Y230299D01*
X185939Y231257D01*
X185453Y231890D01*
X185693Y232390D01*
X186998D01*
X188789Y230600D01*
D02*
G37*
G36*
X153321Y170664D02*
X154116Y170335D01*
X154978D01*
X155394Y170507D01*
X155894Y170173D01*
Y161506D01*
X154895Y160506D01*
X154569D01*
X153773Y160176D01*
X153164Y159567D01*
X152835Y158771D01*
Y158462D01*
X152335Y158255D01*
X147701Y162889D01*
X147892Y163350D01*
X148046D01*
X149102Y163633D01*
X150048Y164180D01*
X150821Y164952D01*
X151367Y165898D01*
X151650Y166954D01*
Y167000D01*
X147500D01*
Y168000D01*
X151650D01*
Y168046D01*
X151367Y169102D01*
X150821Y170048D01*
X150474Y170394D01*
X150681Y170894D01*
X153091D01*
X153321Y170664D01*
D02*
G37*
G36*
X140894Y161813D02*
Y158341D01*
X140894Y158341D01*
X141017Y157726D01*
X141365Y157205D01*
X148616Y149954D01*
X148333Y149530D01*
X148006Y149665D01*
X147145D01*
X146349Y149336D01*
X145740Y148727D01*
X145410Y147931D01*
Y147069D01*
X145740Y146273D01*
X146349Y145664D01*
X147145Y145335D01*
X147510D01*
X151004Y141841D01*
X150745Y141393D01*
X150520Y141453D01*
X150500D01*
Y138000D01*
X153953D01*
Y138020D01*
X153893Y138245D01*
X154341Y138504D01*
X155894Y136950D01*
Y135299D01*
X155840Y135027D01*
X155840Y135027D01*
Y130727D01*
X155340Y130557D01*
X155130Y130831D01*
X154263Y131496D01*
X153253Y131914D01*
X152670Y131991D01*
Y126100D01*
X152170D01*
Y125600D01*
X147985D01*
Y124328D01*
X148127Y123245D01*
X148546Y122236D01*
X148949Y121710D01*
X148703Y121210D01*
X145364D01*
X145123Y121710D01*
X145609Y122343D01*
X146006Y123301D01*
X146141Y124328D01*
Y127872D01*
X146006Y128899D01*
X145609Y129857D01*
X144978Y130680D01*
X144156Y131311D01*
X143776Y131468D01*
Y153203D01*
X143776Y153203D01*
X143654Y153817D01*
X143306Y154338D01*
X143306Y154338D01*
X136606Y161038D01*
Y165394D01*
X137106Y165602D01*
X140894Y161813D01*
D02*
G37*
G36*
X180515Y172289D02*
X180894Y172132D01*
Y165953D01*
X180894Y165953D01*
X181017Y165339D01*
X181365Y164818D01*
X192447Y153735D01*
X192264Y153211D01*
X191472Y153107D01*
X190515Y152711D01*
X189692Y152080D01*
X189061Y151257D01*
X188664Y150299D01*
X188529Y149272D01*
Y145728D01*
X188664Y144701D01*
X189061Y143743D01*
X189692Y142920D01*
X190515Y142289D01*
X190894Y142132D01*
Y135548D01*
X185790Y130443D01*
X185651Y130366D01*
X185230Y130352D01*
X184978Y130680D01*
X184156Y131311D01*
X183198Y131707D01*
X182407Y131811D01*
X182223Y132335D01*
X183635Y133747D01*
X183635Y133747D01*
X183983Y134268D01*
X184106Y134883D01*
X184106Y134883D01*
Y136370D01*
X184606Y136577D01*
X184815Y136368D01*
X185439Y136109D01*
Y138050D01*
Y139991D01*
X184815Y139732D01*
X184606Y139523D01*
X184106Y139730D01*
Y142132D01*
X184485Y142289D01*
X185308Y142920D01*
X185939Y143743D01*
X186336Y144701D01*
X186471Y145728D01*
Y149272D01*
X186336Y150299D01*
X185939Y151257D01*
X185308Y152080D01*
X184485Y152711D01*
X183528Y153107D01*
X182500Y153243D01*
X181472Y153107D01*
X180515Y152711D01*
X179692Y152080D01*
X179278Y151540D01*
X178743Y151664D01*
X178708Y151843D01*
X178360Y152364D01*
X178360Y152364D01*
X175592Y155131D01*
X175071Y155480D01*
X174457Y155602D01*
X174457Y155602D01*
X171732D01*
X171541Y156064D01*
X178911Y163434D01*
X178911Y163434D01*
X179259Y163955D01*
X179381Y164569D01*
Y172535D01*
X179881Y172775D01*
X180515Y172289D01*
D02*
G37*
G36*
X116632Y187257D02*
X116026Y186852D01*
X115955Y186781D01*
X115872Y186725D01*
X114994Y185848D01*
X114938Y185765D01*
X114867Y185694D01*
X114178Y184662D01*
X114139Y184569D01*
X114084Y184485D01*
X113609Y183339D01*
X113589Y183240D01*
X113551Y183148D01*
X113309Y181930D01*
Y181830D01*
X113289Y181731D01*
Y180491D01*
X113309Y180392D01*
Y180292D01*
X113551Y179075D01*
X113589Y178982D01*
X113609Y178883D01*
X113996Y177948D01*
X113766Y177795D01*
X113695Y177724D01*
X113612Y177668D01*
X112241Y176297D01*
X112185Y176213D01*
X112114Y176142D01*
X111036Y174530D01*
X110998Y174437D01*
X110942Y174354D01*
X110200Y172562D01*
X110180Y172463D01*
X110142Y172371D01*
X109764Y170469D01*
Y170368D01*
X109744Y170270D01*
Y168330D01*
X109764Y168232D01*
Y168131D01*
X110142Y166229D01*
X110180Y166137D01*
X110200Y166038D01*
X110942Y164246D01*
X110998Y164163D01*
X111036Y164070D01*
X112114Y162458D01*
X112185Y162387D01*
X112241Y162303D01*
X113612Y160932D01*
X113695Y160876D01*
X113766Y160805D01*
X115379Y159728D01*
X115472Y159689D01*
X115555Y159634D01*
X117347Y158891D01*
X117445Y158872D01*
X117538Y158833D01*
X119440Y158455D01*
X119541D01*
X119639Y158435D01*
X121578D01*
X121677Y158455D01*
X121777D01*
X123679Y158833D01*
X123772Y158872D01*
X123871Y158891D01*
X125662Y159634D01*
X125746Y159689D01*
X125838Y159728D01*
X127451Y160805D01*
X127522Y160876D01*
X127605Y160932D01*
X128977Y162303D01*
X129033Y162387D01*
X129104Y162458D01*
X130181Y164070D01*
X130219Y164163D01*
X130275Y164246D01*
X130390Y164523D01*
X130880Y164426D01*
Y131599D01*
X130185Y131311D01*
X129362Y130680D01*
X128731Y129857D01*
X128334Y128899D01*
X128199Y127872D01*
Y124328D01*
X128334Y123301D01*
X128731Y122343D01*
X129217Y121710D01*
X128977Y121210D01*
X127560D01*
X125848Y122921D01*
X126006Y123301D01*
X126141Y124328D01*
Y127872D01*
X126006Y128899D01*
X125609Y129857D01*
X124978Y130680D01*
X124156Y131311D01*
X123198Y131707D01*
X122170Y131843D01*
X121142Y131707D01*
X120185Y131311D01*
X119696Y130935D01*
X119336Y131273D01*
X119665Y132069D01*
Y132931D01*
X119354Y133681D01*
X119343Y133752D01*
X119350Y133776D01*
X119932Y134001D01*
X120569Y133633D01*
X121624Y133350D01*
X121670D01*
Y137500D01*
Y141650D01*
X121624D01*
X120569Y141367D01*
X119622Y140821D01*
X119046Y140245D01*
X118719Y140102D01*
X118383Y140239D01*
X112487Y146135D01*
X111966Y146483D01*
X111352Y146606D01*
X111351Y146606D01*
X107500D01*
X107446Y146595D01*
X107129Y146981D01*
X107165Y147069D01*
Y147931D01*
X106836Y148727D01*
X106606Y148957D01*
Y158838D01*
X108261Y160494D01*
X108609Y161014D01*
X108732Y161629D01*
X108732Y161629D01*
Y166032D01*
X108732Y166032D01*
X108609Y166646D01*
X108261Y167167D01*
X108261Y167167D01*
X108141Y167288D01*
Y187757D01*
X116481D01*
X116632Y187257D01*
D02*
G37*
G36*
X140565Y152538D02*
Y131468D01*
X140185Y131311D01*
X139362Y130680D01*
X138731Y129857D01*
X138335Y128899D01*
X138199Y127872D01*
Y124328D01*
X138335Y123301D01*
X138731Y122343D01*
X139217Y121710D01*
X138977Y121210D01*
X135364D01*
X135123Y121710D01*
X135609Y122343D01*
X136006Y123301D01*
X136141Y124328D01*
Y127872D01*
X136006Y128899D01*
X135609Y129857D01*
X134978Y130680D01*
X134156Y131311D01*
X134091Y131337D01*
Y158358D01*
X134553Y158549D01*
X140565Y152538D01*
D02*
G37*
G36*
X101273Y124264D02*
X102069Y123935D01*
X102395D01*
X110223Y116106D01*
X110223Y116106D01*
X110744Y115758D01*
X111358Y115636D01*
X155160D01*
X155160Y115636D01*
X155774Y115758D01*
X156295Y116106D01*
X160817Y120628D01*
X161142Y120493D01*
X161934Y120388D01*
X162117Y119865D01*
X143846Y101594D01*
X143384Y101785D01*
Y101795D01*
X143082Y102524D01*
X142524Y103082D01*
X141900Y103341D01*
Y101400D01*
X141400D01*
Y100900D01*
X139459D01*
X139718Y100276D01*
X140276Y99718D01*
X140552Y99603D01*
X140740Y98984D01*
X140686Y98904D01*
X137244D01*
X136629Y98781D01*
X136108Y98433D01*
X136108Y98433D01*
X111035Y73360D01*
X110687Y72839D01*
X110564Y72224D01*
X110287Y71809D01*
X109051D01*
Y93891D01*
X109513Y94082D01*
X110335Y93261D01*
Y92936D01*
X110664Y92140D01*
X111273Y91531D01*
X112069Y91201D01*
X112931D01*
X113727Y91531D01*
X114336Y92140D01*
X114665Y92936D01*
Y93797D01*
X114336Y94593D01*
X113727Y95202D01*
X112931Y95532D01*
X112605D01*
X111414Y96724D01*
Y102692D01*
X111414Y102692D01*
X111291Y103306D01*
X110943Y103827D01*
X110943Y103827D01*
X100464Y114307D01*
Y124367D01*
X100964Y124574D01*
X101273Y124264D01*
D02*
G37*
G36*
X74094Y74007D02*
Y34391D01*
X73731D01*
X73012Y34296D01*
X72342Y34018D01*
X71766Y33577D01*
X71324Y33001D01*
X71047Y32331D01*
X70952Y31611D01*
Y15822D01*
X70448D01*
Y31611D01*
X70354Y32331D01*
X70076Y33001D01*
X69634Y33577D01*
X69058Y34018D01*
X68388Y34296D01*
X67668Y34391D01*
X67406D01*
Y35343D01*
X67736Y35673D01*
X68065Y36469D01*
Y37331D01*
X67736Y38127D01*
X67127Y38736D01*
X66331Y39065D01*
X65469D01*
X64673Y38736D01*
X64064Y38127D01*
X63735Y37331D01*
Y36469D01*
X64064Y35673D01*
X64194Y35543D01*
Y34391D01*
X63731D01*
X63012Y34296D01*
X62342Y34018D01*
X61766Y33577D01*
X61324Y33001D01*
X61046Y32331D01*
X60952Y31611D01*
Y15822D01*
X60448D01*
Y31611D01*
X60353Y32331D01*
X60076Y33001D01*
X59634Y33577D01*
X59058Y34018D01*
X58388Y34296D01*
X57669Y34391D01*
X57306D01*
Y59557D01*
X57183Y60172D01*
X56835Y60693D01*
X56835Y60693D01*
X55661Y61867D01*
Y62907D01*
X56161Y63147D01*
X56794Y62661D01*
X57752Y62264D01*
X58780Y62129D01*
X62323D01*
X63351Y62264D01*
X64308Y62661D01*
X65131Y63292D01*
X65762Y64114D01*
X66158Y65072D01*
X66294Y66100D01*
X66158Y67128D01*
X65762Y68085D01*
X65131Y68908D01*
X64308Y69539D01*
X63351Y69936D01*
X62323Y70071D01*
X58780D01*
X57752Y69936D01*
X56794Y69539D01*
X56161Y69053D01*
X55661Y69293D01*
Y72907D01*
X56161Y73147D01*
X56794Y72661D01*
X57752Y72264D01*
X58780Y72129D01*
X62323D01*
X63351Y72264D01*
X64308Y72661D01*
X65131Y73292D01*
X65762Y74115D01*
X66158Y75072D01*
X66294Y76100D01*
X66158Y77128D01*
X65762Y78086D01*
X65131Y78908D01*
X64308Y79539D01*
X63351Y79936D01*
X62323Y80071D01*
X58780D01*
X57752Y79936D01*
X56794Y79539D01*
X56161Y79053D01*
X55661Y79293D01*
Y82907D01*
X56161Y83147D01*
X56794Y82661D01*
X57752Y82264D01*
X58780Y82129D01*
X62323D01*
X63351Y82264D01*
X64308Y82661D01*
X64949Y83152D01*
X74094Y74007D01*
D02*
G37*
G36*
X75912Y80240D02*
X76433Y79892D01*
X77047Y79770D01*
X77047Y79770D01*
X86274D01*
X86443Y79270D01*
X85972Y78908D01*
X85341Y78086D01*
X84944Y77128D01*
X84809Y76100D01*
X84944Y75072D01*
X85341Y74115D01*
X85832Y73474D01*
X85491Y73133D01*
X85113Y73058D01*
X84592Y72710D01*
X84592Y72710D01*
X82920Y71037D01*
X82572Y70516D01*
X82450Y69902D01*
X82450Y69902D01*
Y62298D01*
X82450Y62298D01*
X82572Y61684D01*
X82920Y61163D01*
X84597Y59485D01*
Y34391D01*
X83732D01*
X83012Y34296D01*
X82342Y34018D01*
X81766Y33577D01*
X81324Y33001D01*
X81046Y32331D01*
X80952Y31611D01*
Y15822D01*
X80448D01*
Y31611D01*
X80353Y32331D01*
X80076Y33001D01*
X79634Y33577D01*
X79058Y34018D01*
X78388Y34296D01*
X77668Y34391D01*
X77306D01*
Y74672D01*
X77306Y74672D01*
X77183Y75286D01*
X76835Y75807D01*
X76835Y75807D01*
X66256Y86386D01*
X66158Y87128D01*
X65762Y88086D01*
X65131Y88908D01*
X64308Y89539D01*
X63351Y89936D01*
X62323Y90071D01*
X59345D01*
X59067Y90487D01*
X59142Y90669D01*
Y91531D01*
X59067Y91713D01*
X59345Y92129D01*
X62323D01*
X63351Y92264D01*
X63730Y92422D01*
X75912Y80240D01*
D02*
G37*
%LPC*%
G36*
X70500Y249841D02*
Y248400D01*
X71941D01*
X71682Y249024D01*
X71124Y249582D01*
X70500Y249841D01*
D02*
G37*
G36*
X69500D02*
X68876Y249582D01*
X68318Y249024D01*
X68059Y248400D01*
X69500D01*
Y249841D01*
D02*
G37*
G36*
X71941Y247400D02*
X70500D01*
Y245959D01*
X71124Y246218D01*
X71682Y246776D01*
X71941Y247400D01*
D02*
G37*
G36*
X69500D02*
X68059D01*
X68318Y246776D01*
X68876Y246218D01*
X69500Y245959D01*
Y247400D01*
D02*
G37*
G36*
X195500Y316641D02*
Y315200D01*
X196941D01*
X196682Y315824D01*
X196124Y316382D01*
X195500Y316641D01*
D02*
G37*
G36*
X194500D02*
X193876Y316382D01*
X193318Y315824D01*
X193059Y315200D01*
X194500D01*
Y316641D01*
D02*
G37*
G36*
X196941Y314200D02*
X195500D01*
Y312759D01*
X196124Y313018D01*
X196682Y313576D01*
X196941Y314200D01*
D02*
G37*
G36*
X194500D02*
X193059D01*
X193318Y313576D01*
X193876Y313018D01*
X194500Y312759D01*
Y314200D01*
D02*
G37*
G36*
X165984Y321218D02*
X164016D01*
X162511Y321070D01*
X161064Y320631D01*
X159730Y319918D01*
X158561Y318959D01*
X157601Y317790D01*
X156889Y316456D01*
X156450Y315009D01*
X156301Y313504D01*
X156450Y311999D01*
X156889Y310552D01*
X157601Y309218D01*
X158561Y308049D01*
X159730Y307090D01*
X161064Y306377D01*
X162511Y305938D01*
X164016Y305790D01*
X165984D01*
X167489Y305938D01*
X168936Y306377D01*
X170270Y307090D01*
X171439Y308049D01*
X172398Y309218D01*
X173111Y310552D01*
X173550Y311999D01*
X173699Y313504D01*
X173550Y315009D01*
X173111Y316456D01*
X172398Y317790D01*
X171439Y318959D01*
X170270Y319918D01*
X168936Y320631D01*
X167489Y321070D01*
X165984Y321218D01*
D02*
G37*
G36*
X175800Y306941D02*
Y305500D01*
X177241D01*
X176982Y306124D01*
X176424Y306682D01*
X175800Y306941D01*
D02*
G37*
G36*
X174800D02*
X174176Y306682D01*
X173618Y306124D01*
X173359Y305500D01*
X174800D01*
Y306941D01*
D02*
G37*
G36*
X177241Y304500D02*
X175800D01*
Y303059D01*
X176424Y303318D01*
X176982Y303876D01*
X177241Y304500D01*
D02*
G37*
G36*
X174800D02*
X173359D01*
X173618Y303876D01*
X174176Y303318D01*
X174800Y303059D01*
Y304500D01*
D02*
G37*
G36*
X215853Y313661D02*
X214147D01*
X212474Y313329D01*
X210897Y312676D01*
X209479Y311728D01*
X208272Y310521D01*
X207324Y309103D01*
X206671Y307526D01*
X206339Y305853D01*
Y304147D01*
X206671Y302474D01*
X207324Y300897D01*
X208272Y299479D01*
X209479Y298272D01*
X210897Y297324D01*
X212474Y296671D01*
X214147Y296339D01*
X215853D01*
X217526Y296671D01*
X219103Y297324D01*
X220521Y298272D01*
X221728Y299479D01*
X222676Y300897D01*
X223329Y302474D01*
X223661Y304147D01*
Y305853D01*
X223329Y307526D01*
X222676Y309103D01*
X221728Y310521D01*
X220521Y311728D01*
X219103Y312676D01*
X217526Y313329D01*
X215853Y313661D01*
D02*
G37*
G36*
X165984Y302928D02*
X165500D01*
Y295500D01*
X173863D01*
X173760Y296547D01*
X173309Y298034D01*
X172576Y299405D01*
X171590Y300606D01*
X170389Y301592D01*
X169018Y302325D01*
X167531Y302776D01*
X165984Y302928D01*
D02*
G37*
G36*
X164500D02*
X164016D01*
X162469Y302776D01*
X160982Y302325D01*
X159611Y301592D01*
X158410Y300606D01*
X157424Y299405D01*
X156691Y298034D01*
X156240Y296547D01*
X156137Y295500D01*
X164500D01*
Y302928D01*
D02*
G37*
G36*
X173863Y294500D02*
X165500D01*
Y287072D01*
X165984D01*
X167531Y287224D01*
X169018Y287675D01*
X170389Y288408D01*
X171590Y289394D01*
X172576Y290596D01*
X173309Y291966D01*
X173760Y293453D01*
X173863Y294500D01*
D02*
G37*
G36*
X164500D02*
X156137D01*
X156240Y293453D01*
X156691Y291966D01*
X157424Y290596D01*
X158410Y289394D01*
X159611Y288408D01*
X160982Y287675D01*
X162469Y287224D01*
X164016Y287072D01*
X164500D01*
Y294500D01*
D02*
G37*
G36*
X125546Y286650D02*
X125500D01*
Y283000D01*
X129150D01*
Y283046D01*
X128867Y284102D01*
X128321Y285048D01*
X127548Y285821D01*
X126602Y286367D01*
X125546Y286650D01*
D02*
G37*
G36*
X124500D02*
X124454D01*
X123398Y286367D01*
X122452Y285821D01*
X121679Y285048D01*
X121133Y284102D01*
X120850Y283046D01*
Y283000D01*
X124500D01*
Y286650D01*
D02*
G37*
G36*
X20700Y283841D02*
Y282400D01*
X22141D01*
X21882Y283024D01*
X21324Y283582D01*
X20700Y283841D01*
D02*
G37*
G36*
X19700D02*
X19076Y283582D01*
X18518Y283024D01*
X18259Y282400D01*
X19700D01*
Y283841D01*
D02*
G37*
G36*
X93500Y282841D02*
Y281400D01*
X94941D01*
X94682Y282024D01*
X94124Y282582D01*
X93500Y282841D01*
D02*
G37*
G36*
X92500D02*
X91876Y282582D01*
X91318Y282024D01*
X91059Y281400D01*
X92500D01*
Y282841D01*
D02*
G37*
G36*
X40546Y284150D02*
X40500D01*
Y280500D01*
X44150D01*
Y280546D01*
X43867Y281602D01*
X43321Y282548D01*
X42548Y283320D01*
X41602Y283867D01*
X40546Y284150D01*
D02*
G37*
G36*
X39500D02*
X39454D01*
X38398Y283867D01*
X37452Y283320D01*
X36680Y282548D01*
X36133Y281602D01*
X35850Y280546D01*
Y280500D01*
X39500D01*
Y284150D01*
D02*
G37*
G36*
X22141Y281400D02*
X20700D01*
Y279959D01*
X21324Y280218D01*
X21882Y280776D01*
X22141Y281400D01*
D02*
G37*
G36*
X19700D02*
X18259D01*
X18518Y280776D01*
X19076Y280218D01*
X19700Y279959D01*
Y281400D01*
D02*
G37*
G36*
X94941Y280400D02*
X93500D01*
Y278959D01*
X94124Y279218D01*
X94682Y279776D01*
X94941Y280400D01*
D02*
G37*
G36*
X92500D02*
X91059D01*
X91318Y279776D01*
X91876Y279218D01*
X92500Y278959D01*
Y280400D01*
D02*
G37*
G36*
X129150Y282000D02*
X125500D01*
Y278350D01*
X125546D01*
X126602Y278633D01*
X127548Y279180D01*
X128321Y279952D01*
X128867Y280898D01*
X129150Y281954D01*
Y282000D01*
D02*
G37*
G36*
X124500D02*
X120850D01*
Y281954D01*
X121133Y280898D01*
X121679Y279952D01*
X122452Y279180D01*
X123398Y278633D01*
X124454Y278350D01*
X124500D01*
Y282000D01*
D02*
G37*
G36*
X215853Y293661D02*
X214147D01*
X212474Y293329D01*
X210897Y292676D01*
X209479Y291728D01*
X208272Y290521D01*
X207324Y289103D01*
X206671Y287526D01*
X206339Y285853D01*
Y284147D01*
X206671Y282474D01*
X207324Y280897D01*
X208272Y279479D01*
X209479Y278272D01*
X210897Y277324D01*
X212474Y276671D01*
X214147Y276339D01*
X215853D01*
X217526Y276671D01*
X219103Y277324D01*
X220521Y278272D01*
X221728Y279479D01*
X222676Y280897D01*
X223329Y282474D01*
X223661Y284147D01*
Y285853D01*
X223329Y287526D01*
X222676Y289103D01*
X221728Y290521D01*
X220521Y291728D01*
X219103Y292676D01*
X217526Y293329D01*
X215853Y293661D01*
D02*
G37*
G36*
X44150Y279500D02*
X40500D01*
Y275850D01*
X40546D01*
X41602Y276133D01*
X42548Y276679D01*
X43321Y277452D01*
X43867Y278398D01*
X44150Y279454D01*
Y279500D01*
D02*
G37*
G36*
X39500D02*
X35850D01*
Y279454D01*
X36133Y278398D01*
X36680Y277452D01*
X37452Y276679D01*
X38398Y276133D01*
X39454Y275850D01*
X39500D01*
Y279500D01*
D02*
G37*
G36*
X144200Y275741D02*
Y274300D01*
X145641D01*
X145382Y274924D01*
X144824Y275482D01*
X144200Y275741D01*
D02*
G37*
G36*
X143200D02*
X142576Y275482D01*
X142018Y274924D01*
X141759Y274300D01*
X143200D01*
Y275741D01*
D02*
G37*
G36*
X145641Y273300D02*
X144200D01*
Y271859D01*
X144824Y272118D01*
X145382Y272676D01*
X145641Y273300D01*
D02*
G37*
G36*
X143200D02*
X141759D01*
X142018Y272676D01*
X142576Y272118D01*
X143200Y271859D01*
Y273300D01*
D02*
G37*
G36*
X193400Y272641D02*
Y271200D01*
X194841D01*
X194582Y271824D01*
X194024Y272382D01*
X193400Y272641D01*
D02*
G37*
G36*
X192400D02*
X191776Y272382D01*
X191218Y271824D01*
X190959Y271200D01*
X192400D01*
Y272641D01*
D02*
G37*
G36*
X165984Y284210D02*
X164016D01*
X162511Y284062D01*
X161064Y283623D01*
X159730Y282910D01*
X158561Y281951D01*
X157601Y280782D01*
X156889Y279448D01*
X156450Y278001D01*
X156301Y276496D01*
X156450Y274991D01*
X156889Y273544D01*
X157601Y272210D01*
X158561Y271041D01*
X159730Y270082D01*
X161064Y269369D01*
X162511Y268930D01*
X164016Y268782D01*
X165984D01*
X167489Y268930D01*
X168936Y269369D01*
X170270Y270082D01*
X171439Y271041D01*
X172398Y272210D01*
X173111Y273544D01*
X173550Y274991D01*
X173699Y276496D01*
X173550Y278001D01*
X173111Y279448D01*
X172398Y280782D01*
X171439Y281951D01*
X170270Y282910D01*
X168936Y283623D01*
X167489Y284062D01*
X165984Y284210D01*
D02*
G37*
G36*
X194841Y270200D02*
X193400D01*
Y268759D01*
X194024Y269018D01*
X194582Y269576D01*
X194841Y270200D01*
D02*
G37*
G36*
X192400D02*
X190959D01*
X191218Y269576D01*
X191776Y269018D01*
X192400Y268759D01*
Y270200D01*
D02*
G37*
G36*
X220700Y269441D02*
Y268000D01*
X222141D01*
X221882Y268624D01*
X221324Y269182D01*
X220700Y269441D01*
D02*
G37*
G36*
X219700D02*
X219076Y269182D01*
X218518Y268624D01*
X218259Y268000D01*
X219700D01*
Y269441D01*
D02*
G37*
G36*
X222141Y267000D02*
X220700D01*
Y265559D01*
X221324Y265818D01*
X221882Y266376D01*
X222141Y267000D01*
D02*
G37*
G36*
X219700D02*
X218259D01*
X218518Y266376D01*
X219076Y265818D01*
X219700Y265559D01*
Y267000D01*
D02*
G37*
G36*
X119200Y264741D02*
Y263300D01*
X120641D01*
X120382Y263924D01*
X119824Y264482D01*
X119200Y264741D01*
D02*
G37*
G36*
X118200D02*
X117576Y264482D01*
X117018Y263924D01*
X116759Y263300D01*
X118200D01*
Y264741D01*
D02*
G37*
G36*
X50518Y283937D02*
X49482D01*
X48480Y283669D01*
X47583Y283150D01*
X46850Y282417D01*
X46331Y281520D01*
X46063Y280518D01*
Y279482D01*
X46228Y278868D01*
Y270452D01*
X46164Y270299D01*
X46029Y269272D01*
Y265728D01*
X46164Y264701D01*
X46561Y263743D01*
X47192Y262920D01*
X48015Y262289D01*
X48972Y261893D01*
X50000Y261757D01*
X51028Y261893D01*
X51986Y262289D01*
X52808Y262920D01*
X53439Y263743D01*
X53836Y264701D01*
X53971Y265728D01*
Y269272D01*
X53836Y270299D01*
X53772Y270452D01*
Y278868D01*
X53937Y279482D01*
Y280518D01*
X53669Y281520D01*
X53150Y282417D01*
X52417Y283150D01*
X51520Y283669D01*
X50518Y283937D01*
D02*
G37*
G36*
X30000Y273243D02*
X28972Y273107D01*
X28014Y272711D01*
X27192Y272080D01*
X26561Y271257D01*
X26164Y270299D01*
X26029Y269272D01*
Y265728D01*
X26164Y264701D01*
X26561Y263743D01*
X27192Y262920D01*
X28014Y262289D01*
X28972Y261893D01*
X30000Y261757D01*
X31028Y261893D01*
X31986Y262289D01*
X32808Y262920D01*
X33439Y263743D01*
X33836Y264701D01*
X33971Y265728D01*
Y269272D01*
X33836Y270299D01*
X33439Y271257D01*
X32808Y272080D01*
X31986Y272711D01*
X31028Y273107D01*
X30000Y273243D01*
D02*
G37*
G36*
X20000D02*
X18972Y273107D01*
X18014Y272711D01*
X17192Y272080D01*
X16561Y271257D01*
X16164Y270299D01*
X16029Y269272D01*
Y265728D01*
X16164Y264701D01*
X16561Y263743D01*
X17192Y262920D01*
X18014Y262289D01*
X18972Y261893D01*
X20000Y261757D01*
X21028Y261893D01*
X21985Y262289D01*
X22808Y262920D01*
X23439Y263743D01*
X23836Y264701D01*
X23971Y265728D01*
Y269272D01*
X23836Y270299D01*
X23439Y271257D01*
X22808Y272080D01*
X21985Y272711D01*
X21028Y273107D01*
X20000Y273243D01*
D02*
G37*
G36*
X120641Y262300D02*
X119200D01*
Y260859D01*
X119824Y261118D01*
X120382Y261676D01*
X120641Y262300D01*
D02*
G37*
G36*
X118200D02*
X116759D01*
X117018Y261676D01*
X117576Y261118D01*
X118200Y260859D01*
Y262300D01*
D02*
G37*
G36*
X87000Y259041D02*
Y257600D01*
X88441D01*
X88182Y258224D01*
X87624Y258782D01*
X87000Y259041D01*
D02*
G37*
G36*
X86000D02*
X85376Y258782D01*
X84818Y258224D01*
X84559Y257600D01*
X86000D01*
Y259041D01*
D02*
G37*
G36*
X88441Y256600D02*
X87000D01*
Y255159D01*
X87624Y255418D01*
X88182Y255976D01*
X88441Y256600D01*
D02*
G37*
G36*
X86000D02*
X84559D01*
X84818Y255976D01*
X85376Y255418D01*
X86000Y255159D01*
Y256600D01*
D02*
G37*
G36*
X40000Y273243D02*
X38972Y273107D01*
X38015Y272711D01*
X37192Y272080D01*
X36561Y271257D01*
X36164Y270299D01*
X36029Y269272D01*
Y265728D01*
X36164Y264701D01*
X36561Y263743D01*
X37192Y262920D01*
X38015Y262289D01*
X38972Y261893D01*
X40000Y261757D01*
X41028Y261893D01*
X41408Y262050D01*
X47254Y256203D01*
X47254Y256203D01*
X47775Y255855D01*
X48390Y255733D01*
X49905D01*
X50273Y255364D01*
X51069Y255035D01*
X51931D01*
X52727Y255364D01*
X53336Y255973D01*
X53665Y256769D01*
Y257631D01*
X53336Y258427D01*
X52727Y259036D01*
X51931Y259365D01*
X51069D01*
X50273Y259036D01*
X50182Y258944D01*
X49055D01*
X43678Y264321D01*
X43836Y264701D01*
X43971Y265728D01*
Y269272D01*
X43836Y270299D01*
X43439Y271257D01*
X42808Y272080D01*
X41985Y272711D01*
X41028Y273107D01*
X40000Y273243D01*
D02*
G37*
G36*
X9900Y253441D02*
Y252000D01*
X11341D01*
X11082Y252624D01*
X10524Y253182D01*
X9900Y253441D01*
D02*
G37*
G36*
X8900D02*
X8276Y253182D01*
X7718Y252624D01*
X7459Y252000D01*
X8900D01*
Y253441D01*
D02*
G37*
G36*
X205598Y254543D02*
X205500D01*
Y250500D01*
X209543D01*
Y250598D01*
X209234Y251754D01*
X208635Y252790D01*
X207790Y253636D01*
X206754Y254234D01*
X205598Y254543D01*
D02*
G37*
G36*
X204500D02*
X204402D01*
X203246Y254234D01*
X202210Y253636D01*
X201364Y252790D01*
X200766Y251754D01*
X200457Y250598D01*
Y250500D01*
X204500D01*
Y254543D01*
D02*
G37*
G36*
X11341Y251000D02*
X9900D01*
Y249559D01*
X10524Y249818D01*
X11082Y250376D01*
X11341Y251000D01*
D02*
G37*
G36*
X8900D02*
X7459D01*
X7718Y250376D01*
X8276Y249818D01*
X8900Y249559D01*
Y251000D01*
D02*
G37*
G36*
X209543Y249500D02*
X205500D01*
Y245457D01*
X205598D01*
X206754Y245766D01*
X207790Y246364D01*
X208635Y247210D01*
X209234Y248246D01*
X209543Y249402D01*
Y249500D01*
D02*
G37*
G36*
X204500D02*
X200457D01*
Y249402D01*
X200766Y248246D01*
X201364Y247210D01*
X202210Y246364D01*
X203246Y245766D01*
X204402Y245457D01*
X204500D01*
Y249500D01*
D02*
G37*
G36*
X209136Y243341D02*
Y241900D01*
X210576D01*
X210318Y242524D01*
X209759Y243082D01*
X209136Y243341D01*
D02*
G37*
G36*
X208136D02*
X207511Y243082D01*
X206953Y242524D01*
X206695Y241900D01*
X208136D01*
Y243341D01*
D02*
G37*
G36*
X182000Y241641D02*
Y240200D01*
X183441D01*
X183182Y240824D01*
X182624Y241382D01*
X182000Y241641D01*
D02*
G37*
G36*
X181000D02*
X180376Y241382D01*
X179818Y240824D01*
X179559Y240200D01*
X181000D01*
Y241641D01*
D02*
G37*
G36*
X210576Y240900D02*
X209136D01*
Y239459D01*
X209759Y239718D01*
X210318Y240276D01*
X210576Y240900D01*
D02*
G37*
G36*
X208136D02*
X206695D01*
X206953Y240276D01*
X207511Y239718D01*
X208136Y239459D01*
Y240900D01*
D02*
G37*
G36*
X155600Y240241D02*
Y238800D01*
X157041D01*
X156782Y239424D01*
X156224Y239982D01*
X155600Y240241D01*
D02*
G37*
G36*
X154600D02*
X153976Y239982D01*
X153418Y239424D01*
X153159Y238800D01*
X154600D01*
Y240241D01*
D02*
G37*
G36*
X50500Y243391D02*
Y238000D01*
X54185D01*
Y239272D01*
X54043Y240355D01*
X53625Y241364D01*
X52960Y242231D01*
X52093Y242896D01*
X51083Y243315D01*
X50500Y243391D01*
D02*
G37*
G36*
X49500D02*
X48917Y243315D01*
X47907Y242896D01*
X47041Y242231D01*
X46375Y241364D01*
X45957Y240355D01*
X45815Y239272D01*
Y238000D01*
X49500D01*
Y243391D01*
D02*
G37*
G36*
X183441Y239200D02*
X182000D01*
Y237759D01*
X182624Y238018D01*
X183182Y238576D01*
X183441Y239200D01*
D02*
G37*
G36*
X181000D02*
X179559D01*
X179818Y238576D01*
X180376Y238018D01*
X181000Y237759D01*
Y239200D01*
D02*
G37*
G36*
X157041Y237800D02*
X155600D01*
Y236359D01*
X156224Y236618D01*
X156782Y237176D01*
X157041Y237800D01*
D02*
G37*
G36*
X154600D02*
X153159D01*
X153418Y237176D01*
X153976Y236618D01*
X154600Y236359D01*
Y237800D01*
D02*
G37*
G36*
X106772Y251471D02*
X103228D01*
X102201Y251336D01*
X101243Y250939D01*
X100420Y250308D01*
X99789Y249485D01*
X99393Y248528D01*
X99257Y247500D01*
X99393Y246472D01*
X99789Y245514D01*
X100420Y244692D01*
X101243Y244061D01*
X102201Y243664D01*
X103228Y243529D01*
X103394D01*
Y241471D01*
X103228D01*
X102201Y241336D01*
X101243Y240939D01*
X100420Y240308D01*
X99789Y239486D01*
X99393Y238528D01*
X99257Y237500D01*
X99393Y236472D01*
X99789Y235514D01*
X100420Y234692D01*
X101243Y234061D01*
X102201Y233664D01*
X103228Y233529D01*
X106772D01*
X107799Y233664D01*
X108757Y234061D01*
X109580Y234692D01*
X110211Y235514D01*
X110607Y236472D01*
X110743Y237500D01*
X110607Y238528D01*
X110211Y239486D01*
X109580Y240308D01*
X108757Y240939D01*
X107799Y241336D01*
X106772Y241471D01*
X106606D01*
Y243529D01*
X106772D01*
X107799Y243664D01*
X108757Y244061D01*
X109580Y244692D01*
X110211Y245514D01*
X110607Y246472D01*
X110743Y247500D01*
X110607Y248528D01*
X110211Y249485D01*
X109580Y250308D01*
X108757Y250939D01*
X107799Y251336D01*
X106772Y251471D01*
D02*
G37*
G36*
X40000Y243243D02*
X38972Y243107D01*
X38015Y242711D01*
X37192Y242080D01*
X36561Y241257D01*
X36164Y240299D01*
X36029Y239272D01*
Y235728D01*
X36164Y234701D01*
X36561Y233743D01*
X37192Y232920D01*
X38015Y232289D01*
X38972Y231893D01*
X40000Y231757D01*
X41028Y231893D01*
X41985Y232289D01*
X42808Y232920D01*
X43439Y233743D01*
X43836Y234701D01*
X43971Y235728D01*
Y239272D01*
X43836Y240299D01*
X43439Y241257D01*
X42808Y242080D01*
X41985Y242711D01*
X41028Y243107D01*
X40000Y243243D01*
D02*
G37*
G36*
X20000D02*
X18972Y243107D01*
X18014Y242711D01*
X17192Y242080D01*
X16561Y241257D01*
X16164Y240299D01*
X16029Y239272D01*
Y235728D01*
X16164Y234701D01*
X16561Y233743D01*
X17192Y232920D01*
X18014Y232289D01*
X18972Y231893D01*
X20000Y231757D01*
X21028Y231893D01*
X21985Y232289D01*
X22808Y232920D01*
X23439Y233743D01*
X23836Y234701D01*
X23971Y235728D01*
Y239272D01*
X23836Y240299D01*
X23439Y241257D01*
X22808Y242080D01*
X21985Y242711D01*
X21028Y243107D01*
X20000Y243243D01*
D02*
G37*
G36*
X54185Y237000D02*
X50500D01*
Y231609D01*
X51083Y231685D01*
X52093Y232104D01*
X52960Y232769D01*
X53625Y233636D01*
X54043Y234645D01*
X54185Y235728D01*
Y237000D01*
D02*
G37*
G36*
X49500D02*
X45815D01*
Y235728D01*
X45957Y234645D01*
X46375Y233636D01*
X47041Y232769D01*
X47907Y232104D01*
X48917Y231685D01*
X49500Y231609D01*
Y237000D01*
D02*
G37*
G36*
X85224Y231426D02*
Y229985D01*
X86665D01*
X86407Y230609D01*
X85848Y231168D01*
X85224Y231426D01*
D02*
G37*
G36*
X84224D02*
X83600Y231168D01*
X83042Y230609D01*
X82784Y229985D01*
X84224D01*
Y231426D01*
D02*
G37*
G36*
X223000Y233391D02*
Y228000D01*
X226685D01*
Y229272D01*
X226543Y230355D01*
X226125Y231364D01*
X225460Y232231D01*
X224593Y232896D01*
X223583Y233314D01*
X223000Y233391D01*
D02*
G37*
G36*
X213000D02*
Y228000D01*
X216685D01*
Y229272D01*
X216543Y230355D01*
X216125Y231364D01*
X215459Y232231D01*
X214593Y232896D01*
X213583Y233314D01*
X213000Y233391D01*
D02*
G37*
G36*
X222000D02*
X221417Y233314D01*
X220407Y232896D01*
X219541Y232231D01*
X218875Y231364D01*
X218457Y230355D01*
X218315Y229272D01*
Y228000D01*
X222000D01*
Y233391D01*
D02*
G37*
G36*
X15500Y229241D02*
Y227800D01*
X16941D01*
X16682Y228424D01*
X16124Y228982D01*
X15500Y229241D01*
D02*
G37*
G36*
X14500D02*
X13876Y228982D01*
X13318Y228424D01*
X13059Y227800D01*
X14500D01*
Y229241D01*
D02*
G37*
G36*
X86665Y228986D02*
X85224D01*
Y227545D01*
X85848Y227803D01*
X86407Y228362D01*
X86665Y228986D01*
D02*
G37*
G36*
X84224D02*
X82784D01*
X83042Y228362D01*
X83600Y227803D01*
X84224Y227545D01*
Y228986D01*
D02*
G37*
G36*
X16941Y226800D02*
X15500D01*
Y225359D01*
X16124Y225618D01*
X16682Y226176D01*
X16941Y226800D01*
D02*
G37*
G36*
X14500D02*
X13059D01*
X13318Y226176D01*
X13876Y225618D01*
X14500Y225359D01*
Y226800D01*
D02*
G37*
G36*
X106772Y231471D02*
X103228D01*
X102201Y231336D01*
X101243Y230939D01*
X100420Y230308D01*
X99789Y229486D01*
X99393Y228528D01*
X99257Y227500D01*
X99393Y226472D01*
X99789Y225515D01*
X100420Y224692D01*
X101243Y224061D01*
X102201Y223664D01*
X103228Y223529D01*
X106772D01*
X107799Y223664D01*
X108757Y224061D01*
X109580Y224692D01*
X110211Y225515D01*
X110607Y226472D01*
X110743Y227500D01*
X110607Y228528D01*
X110211Y229486D01*
X109580Y230308D01*
X108757Y230939D01*
X107799Y231336D01*
X106772Y231471D01*
D02*
G37*
G36*
X80546Y226650D02*
X80500D01*
Y223000D01*
X84150D01*
Y223046D01*
X83867Y224102D01*
X83320Y225048D01*
X82548Y225820D01*
X81602Y226367D01*
X80546Y226650D01*
D02*
G37*
G36*
X34500D02*
X34454D01*
X33398Y226367D01*
X32452Y225820D01*
X31679Y225048D01*
X31133Y224102D01*
X30850Y223046D01*
Y223000D01*
X34500D01*
Y226650D01*
D02*
G37*
G36*
X115200Y223441D02*
Y222000D01*
X116641D01*
X116382Y222624D01*
X115824Y223182D01*
X115200Y223441D01*
D02*
G37*
G36*
X114200D02*
X113576Y223182D01*
X113018Y222624D01*
X112759Y222000D01*
X114200D01*
Y223441D01*
D02*
G37*
G36*
X226685Y227000D02*
X223000D01*
Y221609D01*
X223583Y221686D01*
X224593Y222104D01*
X225460Y222769D01*
X226125Y223636D01*
X226543Y224645D01*
X226685Y225728D01*
Y227000D01*
D02*
G37*
G36*
X216685D02*
X213000D01*
Y221609D01*
X213583Y221686D01*
X214593Y222104D01*
X215459Y222769D01*
X216125Y223636D01*
X216543Y224645D01*
X216685Y225728D01*
Y227000D01*
D02*
G37*
G36*
X222000D02*
X218315D01*
Y225728D01*
X218457Y224645D01*
X218875Y223636D01*
X219541Y222769D01*
X220407Y222104D01*
X221417Y221686D01*
X222000Y221609D01*
Y227000D01*
D02*
G37*
G36*
X116641Y221000D02*
X115200D01*
Y219559D01*
X115824Y219818D01*
X116382Y220376D01*
X116641Y221000D01*
D02*
G37*
G36*
X114200D02*
X112759D01*
X113018Y220376D01*
X113576Y219818D01*
X114200Y219559D01*
Y221000D01*
D02*
G37*
G36*
X84150Y222000D02*
X80500D01*
Y218350D01*
X80546D01*
X81602Y218633D01*
X82548Y219180D01*
X83320Y219952D01*
X83867Y220898D01*
X84150Y221954D01*
Y222000D01*
D02*
G37*
G36*
X34500D02*
X30850D01*
Y221954D01*
X31133Y220898D01*
X31679Y219952D01*
X32452Y219180D01*
X33398Y218633D01*
X34454Y218350D01*
X34500D01*
Y222000D01*
D02*
G37*
G36*
X234500Y214241D02*
Y212800D01*
X235941D01*
X235682Y213424D01*
X235124Y213982D01*
X234500Y214241D01*
D02*
G37*
G36*
X233500D02*
X232876Y213982D01*
X232318Y213424D01*
X232059Y212800D01*
X233500D01*
Y214241D01*
D02*
G37*
G36*
X235941Y211800D02*
X234500D01*
Y210359D01*
X235124Y210618D01*
X235682Y211176D01*
X235941Y211800D01*
D02*
G37*
G36*
X233500D02*
X232059D01*
X232318Y211176D01*
X232876Y210618D01*
X233500Y210359D01*
Y211800D01*
D02*
G37*
G36*
X120488Y209941D02*
Y208500D01*
X121929D01*
X121670Y209124D01*
X121112Y209682D01*
X120488Y209941D01*
D02*
G37*
G36*
X119488D02*
X118864Y209682D01*
X118306Y209124D01*
X118047Y208500D01*
X119488D01*
Y209941D01*
D02*
G37*
G36*
X106772Y211685D02*
X105500D01*
Y208000D01*
X110891D01*
X110814Y208583D01*
X110396Y209593D01*
X109731Y210459D01*
X108864Y211125D01*
X107855Y211543D01*
X106772Y211685D01*
D02*
G37*
G36*
X121929Y207500D02*
X120488D01*
Y206059D01*
X121112Y206318D01*
X121670Y206876D01*
X121929Y207500D01*
D02*
G37*
G36*
X119488D02*
X118047D01*
X118306Y206876D01*
X118864Y206318D01*
X119488Y206059D01*
Y207500D01*
D02*
G37*
G36*
X20709Y211437D02*
X9291D01*
Y203563D01*
X20709D01*
Y211437D01*
D02*
G37*
G36*
X110891Y207000D02*
X105500D01*
Y203315D01*
X106772D01*
X107855Y203457D01*
X108864Y203875D01*
X109731Y204540D01*
X110396Y205407D01*
X110814Y206417D01*
X110891Y207000D01*
D02*
G37*
G36*
X223000Y203391D02*
Y198000D01*
X226685D01*
Y199272D01*
X226543Y200355D01*
X226125Y201364D01*
X225460Y202231D01*
X224593Y202896D01*
X223583Y203314D01*
X223000Y203391D01*
D02*
G37*
G36*
X222000D02*
X221417Y203314D01*
X220407Y202896D01*
X219541Y202231D01*
X218875Y201364D01*
X218457Y200355D01*
X218315Y199272D01*
Y198000D01*
X222000D01*
Y203391D01*
D02*
G37*
G36*
X16772Y201471D02*
X13228D01*
X12201Y201336D01*
X11243Y200939D01*
X10420Y200308D01*
X9789Y199486D01*
X9393Y198528D01*
X9257Y197500D01*
X9393Y196472D01*
X9789Y195515D01*
X10420Y194692D01*
X11243Y194061D01*
X12201Y193664D01*
X13228Y193529D01*
X16772D01*
X17799Y193664D01*
X18757Y194061D01*
X19580Y194692D01*
X20211Y195515D01*
X20607Y196472D01*
X20743Y197500D01*
X20607Y198528D01*
X20211Y199486D01*
X19580Y200308D01*
X18757Y200939D01*
X17799Y201336D01*
X16772Y201471D01*
D02*
G37*
G36*
X226685Y197000D02*
X223000D01*
Y191609D01*
X223583Y191685D01*
X224593Y192104D01*
X225460Y192769D01*
X226125Y193636D01*
X226543Y194645D01*
X226685Y195728D01*
Y197000D01*
D02*
G37*
G36*
X222000D02*
X218315D01*
Y195728D01*
X218457Y194645D01*
X218875Y193636D01*
X219541Y192769D01*
X220407Y192104D01*
X221417Y191685D01*
X222000Y191609D01*
Y197000D01*
D02*
G37*
G36*
X16772Y191471D02*
X13228D01*
X12201Y191336D01*
X11243Y190939D01*
X10420Y190308D01*
X9789Y189486D01*
X9393Y188528D01*
X9257Y187500D01*
X9393Y186472D01*
X9789Y185514D01*
X10420Y184692D01*
X11243Y184061D01*
X12201Y183664D01*
X13228Y183529D01*
X16772D01*
X17799Y183664D01*
X18757Y184061D01*
X19580Y184692D01*
X20211Y185514D01*
X20368Y185894D01*
X21973D01*
X22835Y185032D01*
Y184707D01*
X23164Y183911D01*
X23773Y183302D01*
X24569Y182973D01*
X25431D01*
X26227Y183302D01*
X26836Y183911D01*
X27165Y184707D01*
Y185568D01*
X26836Y186364D01*
X26227Y186974D01*
X25431Y187303D01*
X25105D01*
X23773Y188635D01*
X23252Y188983D01*
X22638Y189106D01*
X22638Y189106D01*
X20368D01*
X20211Y189486D01*
X19580Y190308D01*
X18757Y190939D01*
X17799Y191336D01*
X16772Y191471D01*
D02*
G37*
G36*
Y181471D02*
X13228D01*
X12201Y181336D01*
X11243Y180939D01*
X10420Y180308D01*
X9789Y179485D01*
X9393Y178528D01*
X9257Y177500D01*
X9393Y176472D01*
X9789Y175514D01*
X10420Y174692D01*
X11243Y174061D01*
X12201Y173664D01*
X13228Y173529D01*
X16772D01*
X17799Y173664D01*
X18757Y174061D01*
X19580Y174692D01*
X20211Y175514D01*
X20607Y176472D01*
X20743Y177500D01*
X20607Y178528D01*
X20211Y179485D01*
X19580Y180308D01*
X18757Y180939D01*
X17799Y181336D01*
X16772Y181471D01*
D02*
G37*
G36*
X222500Y183243D02*
X221472Y183107D01*
X220514Y182711D01*
X219692Y182080D01*
X219061Y181257D01*
X218664Y180299D01*
X218529Y179272D01*
Y175728D01*
X218664Y174701D01*
X219061Y173743D01*
X219692Y172920D01*
X220514Y172289D01*
X221472Y171893D01*
X222500Y171757D01*
X223528Y171893D01*
X224485Y172289D01*
X225308Y172920D01*
X225939Y173743D01*
X226336Y174701D01*
X226471Y175728D01*
Y179272D01*
X226336Y180299D01*
X225939Y181257D01*
X225308Y182080D01*
X224485Y182711D01*
X223528Y183107D01*
X222500Y183243D01*
D02*
G37*
G36*
X16772Y171471D02*
X13228D01*
X12201Y171336D01*
X11243Y170939D01*
X10420Y170308D01*
X9789Y169485D01*
X9393Y168528D01*
X9257Y167500D01*
X9393Y166472D01*
X9789Y165515D01*
X10420Y164692D01*
X11243Y164061D01*
X12201Y163664D01*
X13228Y163529D01*
X13394D01*
Y161471D01*
X13228D01*
X12201Y161336D01*
X11243Y160939D01*
X10420Y160308D01*
X9789Y159485D01*
X9393Y158528D01*
X9257Y157500D01*
X9393Y156472D01*
X9789Y155515D01*
X10420Y154692D01*
X11243Y154061D01*
X12201Y153664D01*
X13228Y153529D01*
X16772D01*
X17799Y153664D01*
X18757Y154061D01*
X19580Y154692D01*
X20211Y155515D01*
X20607Y156472D01*
X20743Y157500D01*
X20607Y158528D01*
X20211Y159485D01*
X19580Y160308D01*
X18757Y160939D01*
X17799Y161336D01*
X16772Y161471D01*
X16606D01*
Y163529D01*
X16772D01*
X17799Y163664D01*
X18757Y164061D01*
X19580Y164692D01*
X20211Y165515D01*
X20607Y166472D01*
X20743Y167500D01*
X20607Y168528D01*
X20211Y169485D01*
X19580Y170308D01*
X18757Y170939D01*
X17799Y171336D01*
X16772Y171471D01*
D02*
G37*
G36*
X223000Y153391D02*
Y148000D01*
X226685D01*
Y149272D01*
X226543Y150355D01*
X226125Y151364D01*
X225460Y152231D01*
X224593Y152896D01*
X223583Y153314D01*
X223000Y153391D01*
D02*
G37*
G36*
X233900Y149441D02*
Y148000D01*
X235341D01*
X235082Y148624D01*
X234524Y149182D01*
X233900Y149441D01*
D02*
G37*
G36*
X232900D02*
X232276Y149182D01*
X231718Y148624D01*
X231459Y148000D01*
X232900D01*
Y149441D01*
D02*
G37*
G36*
X61772Y151685D02*
X60500D01*
Y148000D01*
X65891D01*
X65815Y148583D01*
X65396Y149593D01*
X64731Y150460D01*
X63864Y151125D01*
X62855Y151543D01*
X61772Y151685D01*
D02*
G37*
G36*
X59500D02*
X58228D01*
X57145Y151543D01*
X56136Y151125D01*
X55269Y150460D01*
X54604Y149593D01*
X54185Y148583D01*
X54109Y148000D01*
X59500D01*
Y151685D01*
D02*
G37*
G36*
X16772D02*
X15500D01*
Y148000D01*
X20891D01*
X20814Y148583D01*
X20396Y149593D01*
X19731Y150460D01*
X18864Y151125D01*
X17855Y151543D01*
X16772Y151685D01*
D02*
G37*
G36*
X14500D02*
X13228D01*
X12145Y151543D01*
X11136Y151125D01*
X10269Y150460D01*
X9604Y149593D01*
X9185Y148583D01*
X9109Y148000D01*
X14500D01*
Y151685D01*
D02*
G37*
G36*
X74300Y148941D02*
Y147500D01*
X75741D01*
X75482Y148124D01*
X74924Y148682D01*
X74300Y148941D01*
D02*
G37*
G36*
X73300D02*
X72676Y148682D01*
X72118Y148124D01*
X71859Y147500D01*
X73300D01*
Y148941D01*
D02*
G37*
G36*
X235341Y147000D02*
X233900D01*
Y145559D01*
X234524Y145818D01*
X235082Y146376D01*
X235341Y147000D01*
D02*
G37*
G36*
X232900D02*
X231459D01*
X231718Y146376D01*
X232276Y145818D01*
X232900Y145559D01*
Y147000D01*
D02*
G37*
G36*
X75741Y146500D02*
X74300D01*
Y145059D01*
X74924Y145318D01*
X75482Y145876D01*
X75741Y146500D01*
D02*
G37*
G36*
X73300D02*
X71859D01*
X72118Y145876D01*
X72676Y145318D01*
X73300Y145059D01*
Y146500D01*
D02*
G37*
G36*
X65891Y147000D02*
X60500D01*
Y143315D01*
X61772D01*
X62855Y143457D01*
X63864Y143875D01*
X64731Y144541D01*
X65396Y145407D01*
X65815Y146417D01*
X65891Y147000D01*
D02*
G37*
G36*
X59500D02*
X54109D01*
X54185Y146417D01*
X54604Y145407D01*
X55269Y144541D01*
X56136Y143875D01*
X57145Y143457D01*
X58228Y143315D01*
X59500D01*
Y147000D01*
D02*
G37*
G36*
X20891D02*
X15500D01*
Y143315D01*
X16772D01*
X17855Y143457D01*
X18864Y143875D01*
X19731Y144541D01*
X20396Y145407D01*
X20814Y146417D01*
X20891Y147000D01*
D02*
G37*
G36*
X14500D02*
X9109D01*
X9185Y146417D01*
X9604Y145407D01*
X10269Y144541D01*
X11136Y143875D01*
X12145Y143457D01*
X13228Y143315D01*
X14500D01*
Y147000D01*
D02*
G37*
G36*
X60500Y135539D02*
Y134099D01*
X61941D01*
X61682Y134723D01*
X61124Y135281D01*
X60500Y135539D01*
D02*
G37*
G36*
X59500D02*
X58876Y135281D01*
X58318Y134723D01*
X58059Y134099D01*
X59500D01*
Y135539D01*
D02*
G37*
G36*
X61941Y133099D02*
X60500D01*
Y131658D01*
X61124Y131916D01*
X61682Y132475D01*
X61941Y133099D01*
D02*
G37*
G36*
X59500D02*
X58059D01*
X58318Y132475D01*
X58876Y131916D01*
X59500Y131658D01*
Y133099D01*
D02*
G37*
G36*
X92323Y130285D02*
X91051D01*
Y126600D01*
X96442D01*
X96366Y127183D01*
X95947Y128193D01*
X95282Y129060D01*
X94415Y129725D01*
X93406Y130143D01*
X92323Y130285D01*
D02*
G37*
G36*
X90051D02*
X88779D01*
X87696Y130143D01*
X86687Y129725D01*
X85820Y129060D01*
X85155Y128193D01*
X84737Y127183D01*
X84660Y126600D01*
X90051D01*
Y130285D01*
D02*
G37*
G36*
X62323Y130071D02*
X58780D01*
X57752Y129936D01*
X56794Y129539D01*
X55972Y128908D01*
X55341Y128085D01*
X54944Y127128D01*
X54809Y126100D01*
X54944Y125072D01*
X55341Y124115D01*
X55972Y123292D01*
X56794Y122661D01*
X57752Y122264D01*
X58780Y122129D01*
X62323D01*
X63351Y122264D01*
X64308Y122661D01*
X65131Y123292D01*
X65762Y124115D01*
X66158Y125072D01*
X66294Y126100D01*
X66158Y127128D01*
X65762Y128085D01*
X65131Y128908D01*
X64308Y129539D01*
X63351Y129936D01*
X62323Y130071D01*
D02*
G37*
G36*
X96442Y125600D02*
X91051D01*
Y121915D01*
X92323D01*
X93406Y122057D01*
X94415Y122475D01*
X95282Y123141D01*
X95947Y124007D01*
X96366Y125017D01*
X96442Y125600D01*
D02*
G37*
G36*
X90051D02*
X84660D01*
X84737Y125017D01*
X85155Y124007D01*
X85820Y123141D01*
X86687Y122475D01*
X87696Y122057D01*
X88779Y121915D01*
X90051D01*
Y125600D01*
D02*
G37*
G36*
X62323Y120071D02*
X58780D01*
X57752Y119936D01*
X56794Y119539D01*
X55972Y118908D01*
X55341Y118086D01*
X54944Y117128D01*
X54809Y116100D01*
X54944Y115072D01*
X55341Y114114D01*
X55972Y113292D01*
X56794Y112661D01*
X57752Y112264D01*
X58780Y112129D01*
X62323D01*
X63351Y112264D01*
X64308Y112661D01*
X65131Y113292D01*
X65762Y114114D01*
X66158Y115072D01*
X66294Y116100D01*
X66158Y117128D01*
X65762Y118086D01*
X65131Y118908D01*
X64308Y119539D01*
X63351Y119936D01*
X62323Y120071D01*
D02*
G37*
G36*
X222400Y109441D02*
Y108000D01*
X223841D01*
X223582Y108624D01*
X223024Y109182D01*
X222400Y109441D01*
D02*
G37*
G36*
X221400D02*
X220776Y109182D01*
X220218Y108624D01*
X219959Y108000D01*
X221400D01*
Y109441D01*
D02*
G37*
G36*
X223841Y107000D02*
X222400D01*
Y105559D01*
X223024Y105818D01*
X223582Y106376D01*
X223841Y107000D01*
D02*
G37*
G36*
X221400D02*
X219959D01*
X220218Y106376D01*
X220776Y105818D01*
X221400Y105559D01*
Y107000D01*
D02*
G37*
G36*
X48975Y104205D02*
Y102764D01*
X50416D01*
X50157Y103388D01*
X49599Y103946D01*
X48975Y104205D01*
D02*
G37*
G36*
X47975D02*
X47351Y103946D01*
X46793Y103388D01*
X46534Y102764D01*
X47975D01*
Y104205D01*
D02*
G37*
G36*
X62323Y110071D02*
X58780D01*
X57752Y109936D01*
X56794Y109539D01*
X55972Y108908D01*
X55341Y108086D01*
X54944Y107128D01*
X54809Y106100D01*
X54944Y105072D01*
X55341Y104114D01*
X55972Y103292D01*
X56794Y102661D01*
X57752Y102264D01*
X58780Y102129D01*
X62323D01*
X63351Y102264D01*
X64308Y102661D01*
X65131Y103292D01*
X65762Y104114D01*
X66158Y105072D01*
X66294Y106100D01*
X66158Y107128D01*
X65762Y108086D01*
X65131Y108908D01*
X64308Y109539D01*
X63351Y109936D01*
X62323Y110071D01*
D02*
G37*
G36*
X50416Y101764D02*
X48975D01*
Y100324D01*
X49599Y100582D01*
X50157Y101140D01*
X50416Y101764D01*
D02*
G37*
G36*
X47975D02*
X46534D01*
X46793Y101140D01*
X47351Y100582D01*
X47975Y100324D01*
Y101764D01*
D02*
G37*
G36*
X6308Y99061D02*
Y97620D01*
X7749D01*
X7490Y98244D01*
X6932Y98802D01*
X6308Y99061D01*
D02*
G37*
G36*
X5308D02*
X4684Y98802D01*
X4126Y98244D01*
X3867Y97620D01*
X5308D01*
Y99061D01*
D02*
G37*
G36*
X7749Y96620D02*
X6308D01*
Y95179D01*
X6932Y95438D01*
X7490Y95996D01*
X7749Y96620D01*
D02*
G37*
G36*
X5308D02*
X3867D01*
X4126Y95996D01*
X4684Y95438D01*
X5308Y95179D01*
Y96620D01*
D02*
G37*
G36*
X43070Y99331D02*
X41930D01*
X40828Y99036D01*
X39841Y98465D01*
X39035Y97659D01*
X38464Y96672D01*
X38169Y95570D01*
Y94430D01*
X38464Y93328D01*
X39035Y92341D01*
X39841Y91535D01*
X40828Y90964D01*
X41930Y90669D01*
X43070D01*
X44172Y90964D01*
X45159Y91535D01*
X45965Y92341D01*
X46536Y93328D01*
X46831Y94430D01*
Y95570D01*
X46536Y96672D01*
X45965Y97659D01*
X45159Y98465D01*
X44172Y99036D01*
X43070Y99331D01*
D02*
G37*
G36*
X30570D02*
X29430D01*
X28328Y99036D01*
X27341Y98465D01*
X26535Y97659D01*
X25964Y96672D01*
X25669Y95570D01*
Y94430D01*
X25964Y93328D01*
X26535Y92341D01*
X27341Y91535D01*
X28328Y90964D01*
X29430Y90669D01*
X30570D01*
X31393Y90890D01*
X31402Y90884D01*
X31715Y90458D01*
X31525Y90000D01*
X35406D01*
X35148Y90624D01*
X34589Y91182D01*
X33860Y91484D01*
X33316D01*
X33109Y91984D01*
X33465Y92341D01*
X34036Y93328D01*
X34331Y94430D01*
Y95570D01*
X34036Y96672D01*
X33465Y97659D01*
X32659Y98465D01*
X31672Y99036D01*
X30570Y99331D01*
D02*
G37*
G36*
X81000Y89441D02*
Y88000D01*
X82441D01*
X82182Y88624D01*
X81624Y89182D01*
X81000Y89441D01*
D02*
G37*
G36*
X80000D02*
X79376Y89182D01*
X78818Y88624D01*
X78559Y88000D01*
X80000D01*
Y89441D01*
D02*
G37*
G36*
X35406Y89000D02*
X33965D01*
Y87559D01*
X34589Y87818D01*
X35148Y88376D01*
X35406Y89000D01*
D02*
G37*
G36*
X32965D02*
X31525D01*
X31783Y88376D01*
X32341Y87818D01*
X32965Y87559D01*
Y89000D01*
D02*
G37*
G36*
X82441Y87000D02*
X81000D01*
Y85559D01*
X81624Y85818D01*
X82182Y86376D01*
X82441Y87000D01*
D02*
G37*
G36*
X80000D02*
X78559D01*
X78818Y86376D01*
X79376Y85818D01*
X80000Y85559D01*
Y87000D01*
D02*
G37*
G36*
X194000Y78641D02*
Y77200D01*
X195441D01*
X195182Y77824D01*
X194624Y78382D01*
X194000Y78641D01*
D02*
G37*
G36*
X193000D02*
X192376Y78382D01*
X191818Y77824D01*
X191559Y77200D01*
X193000D01*
Y78641D01*
D02*
G37*
G36*
X48046Y80250D02*
X48000D01*
Y76600D01*
X51650D01*
Y76646D01*
X51367Y77702D01*
X50820Y78648D01*
X50048Y79421D01*
X49102Y79967D01*
X48046Y80250D01*
D02*
G37*
G36*
X47000D02*
X46954D01*
X45898Y79967D01*
X44952Y79421D01*
X44179Y78648D01*
X43633Y77702D01*
X43350Y76646D01*
Y76600D01*
X47000D01*
Y80250D01*
D02*
G37*
G36*
X195441Y76200D02*
X194000D01*
Y74759D01*
X194624Y75018D01*
X195182Y75576D01*
X195441Y76200D01*
D02*
G37*
G36*
X193000D02*
X191559D01*
X191818Y75576D01*
X192376Y75018D01*
X193000Y74759D01*
Y76200D01*
D02*
G37*
G36*
X51650Y75600D02*
X48000D01*
Y71950D01*
X48046D01*
X49102Y72233D01*
X50048Y72780D01*
X50820Y73552D01*
X51367Y74498D01*
X51650Y75554D01*
Y75600D01*
D02*
G37*
G36*
X47000D02*
X43350D01*
Y75554D01*
X43633Y74498D01*
X44179Y73552D01*
X44952Y72780D01*
X45898Y72233D01*
X46954Y71950D01*
X47000D01*
Y75600D01*
D02*
G37*
G36*
X222670Y71991D02*
Y66600D01*
X226356D01*
Y67872D01*
X226213Y68955D01*
X225795Y69964D01*
X225130Y70831D01*
X224263Y71496D01*
X223253Y71914D01*
X222670Y71991D01*
D02*
G37*
G36*
X221670Y71991D02*
X221087Y71914D01*
X220077Y71496D01*
X219211Y70831D01*
X218546Y69964D01*
X218127Y68955D01*
X217985Y67872D01*
Y66600D01*
X221670D01*
Y71991D01*
D02*
G37*
G36*
X48018Y70037D02*
X46982D01*
X45980Y69769D01*
X45083Y69250D01*
X44350Y68517D01*
X43831Y67620D01*
X43563Y66618D01*
Y65582D01*
X43831Y64580D01*
X44350Y63683D01*
X45083Y62950D01*
X45980Y62431D01*
X46982Y62163D01*
X48018D01*
X49020Y62431D01*
X49917Y62950D01*
X50650Y63683D01*
X51169Y64580D01*
X51437Y65582D01*
Y66618D01*
X51169Y67620D01*
X50650Y68517D01*
X49917Y69250D01*
X49020Y69769D01*
X48018Y70037D01*
D02*
G37*
G36*
X202170Y71843D02*
X201142Y71707D01*
X200185Y71311D01*
X199362Y70680D01*
X198731Y69857D01*
X198335Y68899D01*
X198199Y67872D01*
Y64328D01*
X198335Y63301D01*
X198731Y62343D01*
X199362Y61520D01*
X200185Y60889D01*
X201142Y60493D01*
X202170Y60357D01*
X203198Y60493D01*
X204156Y60889D01*
X204978Y61520D01*
X205609Y62343D01*
X206006Y63301D01*
X206141Y64328D01*
Y67872D01*
X206006Y68899D01*
X205609Y69857D01*
X204978Y70680D01*
X204156Y71311D01*
X203198Y71707D01*
X202170Y71843D01*
D02*
G37*
G36*
X221670Y65600D02*
X217985D01*
Y64328D01*
X218127Y63245D01*
X218546Y62236D01*
X219211Y61369D01*
X220077Y60704D01*
X221087Y60286D01*
X221670Y60209D01*
Y65600D01*
D02*
G37*
G36*
X226356D02*
X222670D01*
Y60209D01*
X223253Y60286D01*
X224263Y60704D01*
X225130Y61369D01*
X225795Y62236D01*
X226213Y63245D01*
X226356Y64328D01*
Y65600D01*
D02*
G37*
G36*
X212170Y71843D02*
X211142Y71707D01*
X210185Y71311D01*
X209362Y70680D01*
X208731Y69857D01*
X208334Y68899D01*
X208199Y67872D01*
Y64328D01*
X208334Y63301D01*
X208731Y62343D01*
X209362Y61520D01*
X210033Y61006D01*
X210154Y60419D01*
X209988Y60254D01*
X209730Y59630D01*
X213611D01*
X213437Y60050D01*
X213582Y60593D01*
X213638Y60675D01*
X214156Y60889D01*
X214978Y61520D01*
X215609Y62343D01*
X216006Y63301D01*
X216141Y64328D01*
Y67872D01*
X216006Y68899D01*
X215609Y69857D01*
X214978Y70680D01*
X214156Y71311D01*
X213198Y71707D01*
X212170Y71843D01*
D02*
G37*
G36*
X213611Y58630D02*
X212170D01*
Y57189D01*
X212794Y57448D01*
X213352Y58006D01*
X213611Y58630D01*
D02*
G37*
G36*
X211170D02*
X209730D01*
X209988Y58006D01*
X210546Y57448D01*
X211170Y57189D01*
Y58630D01*
D02*
G37*
G36*
X51700Y54941D02*
X51076Y54682D01*
X50518Y54124D01*
X50259Y53500D01*
X51700D01*
Y54941D01*
D02*
G37*
G36*
X226220Y56453D02*
X226200D01*
Y53000D01*
X229653D01*
Y53020D01*
X229383Y54026D01*
X228863Y54927D01*
X228127Y55663D01*
X227226Y56183D01*
X226220Y56453D01*
D02*
G37*
G36*
X225200D02*
X225180D01*
X224174Y56183D01*
X223273Y55663D01*
X222537Y54927D01*
X222017Y54026D01*
X221747Y53020D01*
Y53000D01*
X225200D01*
Y56453D01*
D02*
G37*
G36*
X16220D02*
X16200D01*
Y53000D01*
X19653D01*
Y53020D01*
X19383Y54026D01*
X18863Y54927D01*
X18127Y55663D01*
X17226Y56183D01*
X16220Y56453D01*
D02*
G37*
G36*
X15200D02*
X15180D01*
X14174Y56183D01*
X13273Y55663D01*
X12537Y54927D01*
X12017Y54026D01*
X11747Y53020D01*
Y53000D01*
X15200D01*
Y56453D01*
D02*
G37*
G36*
X51700Y52500D02*
X50259D01*
X50518Y51876D01*
X51076Y51318D01*
X51700Y51059D01*
Y52500D01*
D02*
G37*
G36*
X229653Y52000D02*
X226200D01*
Y48547D01*
X226220D01*
X227226Y48817D01*
X228127Y49337D01*
X228863Y50073D01*
X229383Y50974D01*
X229653Y51980D01*
Y52000D01*
D02*
G37*
G36*
X225200D02*
X221747D01*
Y51980D01*
X222017Y50974D01*
X222537Y50073D01*
X223273Y49337D01*
X224174Y48817D01*
X225180Y48547D01*
X225200D01*
Y52000D01*
D02*
G37*
G36*
X19653D02*
X16200D01*
Y48547D01*
X16220D01*
X17226Y48817D01*
X18127Y49337D01*
X18863Y50073D01*
X19383Y50974D01*
X19653Y51980D01*
Y52000D01*
D02*
G37*
G36*
X15200D02*
X11747D01*
Y51980D01*
X12017Y50974D01*
X12537Y50073D01*
X13273Y49337D01*
X14174Y48817D01*
X15180Y48547D01*
X15200D01*
Y52000D01*
D02*
G37*
G36*
X41200Y38641D02*
Y37200D01*
X42641D01*
X42382Y37824D01*
X41824Y38382D01*
X41200Y38641D01*
D02*
G37*
G36*
X40200D02*
X39576Y38382D01*
X39018Y37824D01*
X38759Y37200D01*
X40200D01*
Y38641D01*
D02*
G37*
G36*
X42641Y36200D02*
X41200D01*
Y34759D01*
X41824Y35018D01*
X42382Y35576D01*
X42641Y36200D01*
D02*
G37*
G36*
X40200D02*
X38759D01*
X39018Y35576D01*
X39576Y35018D01*
X40200Y34759D01*
Y36200D01*
D02*
G37*
G36*
X227668Y34605D02*
X226200D01*
Y20300D01*
X230663D01*
Y31611D01*
X230561Y32386D01*
X230261Y33108D01*
X229786Y33728D01*
X229166Y34204D01*
X228443Y34503D01*
X227668Y34605D01*
D02*
G37*
G36*
X15200D02*
X13732D01*
X12957Y34503D01*
X12234Y34204D01*
X11614Y33728D01*
X11139Y33108D01*
X10839Y32386D01*
X10737Y31611D01*
Y20300D01*
X15200D01*
Y34605D01*
D02*
G37*
G36*
X151650Y217000D02*
X148000D01*
Y213350D01*
X148046D01*
X149102Y213633D01*
X150048Y214179D01*
X150821Y214952D01*
X151367Y215898D01*
X151650Y216954D01*
Y217000D01*
D02*
G37*
G36*
X147000D02*
X143350D01*
Y216954D01*
X143633Y215898D01*
X144179Y214952D01*
X144952Y214179D01*
X145898Y213633D01*
X146954Y213350D01*
X147000D01*
Y217000D01*
D02*
G37*
G36*
X143131Y211941D02*
Y210500D01*
X144572D01*
X144314Y211124D01*
X143755Y211682D01*
X143131Y211941D01*
D02*
G37*
G36*
X144572Y209500D02*
X143131D01*
Y208059D01*
X143755Y208318D01*
X144314Y208876D01*
X144572Y209500D01*
D02*
G37*
G36*
X200500Y191341D02*
Y189900D01*
X201941D01*
X201682Y190524D01*
X201124Y191082D01*
X200500Y191341D01*
D02*
G37*
G36*
X199500D02*
X198876Y191082D01*
X198318Y190524D01*
X198059Y189900D01*
X199500D01*
Y191341D01*
D02*
G37*
G36*
X165808Y189341D02*
Y187900D01*
X167248D01*
X166990Y188524D01*
X166432Y189082D01*
X165808Y189341D01*
D02*
G37*
G36*
X164808D02*
X164184Y189082D01*
X163626Y188524D01*
X163367Y187900D01*
X164808D01*
Y189341D01*
D02*
G37*
G36*
X201941Y188900D02*
X200500D01*
Y187459D01*
X201124Y187718D01*
X201682Y188276D01*
X201941Y188900D01*
D02*
G37*
G36*
X199500D02*
X198059D01*
X198318Y188276D01*
X198876Y187718D01*
X199500Y187459D01*
Y188900D01*
D02*
G37*
G36*
X167248Y186900D02*
X165808D01*
Y185459D01*
X166432Y185718D01*
X166990Y186276D01*
X167248Y186900D01*
D02*
G37*
G36*
X164808D02*
X163367D01*
X163626Y186276D01*
X164184Y185718D01*
X164808Y185459D01*
Y186900D01*
D02*
G37*
G36*
X192500Y183243D02*
X191472Y183107D01*
X190515Y182711D01*
X189692Y182080D01*
X189061Y181257D01*
X188664Y180299D01*
X188529Y179272D01*
Y175728D01*
X188664Y174701D01*
X189061Y173743D01*
X189692Y172920D01*
X190515Y172289D01*
X191472Y171893D01*
X192500Y171757D01*
X193528Y171893D01*
X194485Y172289D01*
X195308Y172920D01*
X195939Y173743D01*
X196336Y174701D01*
X196471Y175728D01*
Y179272D01*
X196336Y180299D01*
X195939Y181257D01*
X195308Y182080D01*
X194485Y182711D01*
X193528Y183107D01*
X192500Y183243D01*
D02*
G37*
G36*
X199100Y169441D02*
Y168000D01*
X200541D01*
X200282Y168624D01*
X199724Y169182D01*
X199100Y169441D01*
D02*
G37*
G36*
X198100D02*
X197476Y169182D01*
X196918Y168624D01*
X196659Y168000D01*
X198100D01*
Y169441D01*
D02*
G37*
G36*
X200541Y167000D02*
X199100D01*
Y165559D01*
X199724Y165818D01*
X200282Y166376D01*
X200541Y167000D01*
D02*
G37*
G36*
X198100D02*
X196659D01*
X196918Y166376D01*
X197476Y165818D01*
X198100Y165559D01*
Y167000D01*
D02*
G37*
G36*
X149500Y141453D02*
X149480D01*
X148474Y141183D01*
X147573Y140663D01*
X146837Y139927D01*
X146317Y139026D01*
X146047Y138020D01*
Y138000D01*
X149500D01*
Y141453D01*
D02*
G37*
G36*
X153953Y137000D02*
X150500D01*
Y133547D01*
X150520D01*
X151526Y133817D01*
X152427Y134337D01*
X153163Y135073D01*
X153683Y135974D01*
X153953Y136980D01*
Y137000D01*
D02*
G37*
G36*
X149500D02*
X146047D01*
Y136980D01*
X146317Y135974D01*
X146837Y135073D01*
X147573Y134337D01*
X148474Y133817D01*
X149480Y133547D01*
X149500D01*
Y137000D01*
D02*
G37*
G36*
X151670Y131991D02*
X151087Y131914D01*
X150077Y131496D01*
X149211Y130831D01*
X148546Y129964D01*
X148127Y128955D01*
X147985Y127872D01*
Y126600D01*
X151670D01*
Y131991D01*
D02*
G37*
G36*
X180900Y159341D02*
Y157900D01*
X182341D01*
X182082Y158524D01*
X181524Y159082D01*
X180900Y159341D01*
D02*
G37*
G36*
X179900D02*
X179276Y159082D01*
X178718Y158524D01*
X178459Y157900D01*
X179900D01*
Y159341D01*
D02*
G37*
G36*
X182341Y156900D02*
X180900D01*
Y155459D01*
X181524Y155718D01*
X182082Y156276D01*
X182341Y156900D01*
D02*
G37*
G36*
X179900D02*
X178459D01*
X178718Y156276D01*
X179276Y155718D01*
X179900Y155459D01*
Y156900D01*
D02*
G37*
G36*
X186439Y139991D02*
Y138550D01*
X187880D01*
X187621Y139174D01*
X187063Y139732D01*
X186439Y139991D01*
D02*
G37*
G36*
X187880Y137550D02*
X186439D01*
Y136109D01*
X187063Y136368D01*
X187621Y136926D01*
X187880Y137550D01*
D02*
G37*
G36*
X115639Y153213D02*
Y151772D01*
X117080D01*
X116821Y152396D01*
X116263Y152955D01*
X115639Y153213D01*
D02*
G37*
G36*
X114639D02*
X114015Y152955D01*
X113457Y152396D01*
X113198Y151772D01*
X114639D01*
Y153213D01*
D02*
G37*
G36*
X117080Y150772D02*
X115639D01*
Y149332D01*
X116263Y149590D01*
X116821Y150148D01*
X117080Y150772D01*
D02*
G37*
G36*
X114639D02*
X113198D01*
X113457Y150148D01*
X114015Y149590D01*
X114639Y149332D01*
Y150772D01*
D02*
G37*
G36*
X128834Y143124D02*
Y141683D01*
X130275D01*
X130017Y142307D01*
X129458Y142866D01*
X128834Y143124D01*
D02*
G37*
G36*
X127834D02*
X127210Y142866D01*
X126652Y142307D01*
X126394Y141683D01*
X127834D01*
Y143124D01*
D02*
G37*
G36*
X130275Y140683D02*
X128834D01*
Y139243D01*
X129458Y139501D01*
X130017Y140059D01*
X130275Y140683D01*
D02*
G37*
G36*
X127834D02*
X126394D01*
X126652Y140059D01*
X127210Y139501D01*
X127834Y139243D01*
Y140683D01*
D02*
G37*
G36*
X122716Y141650D02*
X122670D01*
Y138000D01*
X126320D01*
Y138046D01*
X126037Y139102D01*
X125491Y140048D01*
X124718Y140821D01*
X123772Y141367D01*
X122716Y141650D01*
D02*
G37*
G36*
X126320Y137000D02*
X122670D01*
Y133350D01*
X122716D01*
X123772Y133633D01*
X124718Y134179D01*
X125491Y134952D01*
X126037Y135898D01*
X126320Y136954D01*
Y137000D01*
D02*
G37*
G36*
X138400Y143393D02*
Y141953D01*
X139841D01*
X139582Y142577D01*
X139024Y143135D01*
X138400Y143393D01*
D02*
G37*
G36*
X137400D02*
X136776Y143135D01*
X136218Y142577D01*
X135959Y141953D01*
X137400D01*
Y143393D01*
D02*
G37*
G36*
X139841Y140953D02*
X138400D01*
Y139512D01*
X139024Y139771D01*
X139582Y140329D01*
X139841Y140953D01*
D02*
G37*
G36*
X137400D02*
X135959D01*
X136218Y140329D01*
X136776Y139771D01*
X137400Y139512D01*
Y140953D01*
D02*
G37*
G36*
X140900Y103341D02*
X140276Y103082D01*
X139718Y102524D01*
X139459Y101900D01*
X140900D01*
Y103341D01*
D02*
G37*
G36*
X71900Y69541D02*
Y68100D01*
X73341D01*
X73082Y68724D01*
X72524Y69282D01*
X71900Y69541D01*
D02*
G37*
G36*
X70900D02*
X70276Y69282D01*
X69718Y68724D01*
X69459Y68100D01*
X70900D01*
Y69541D01*
D02*
G37*
G36*
X73341Y67100D02*
X71900D01*
Y65659D01*
X72524Y65918D01*
X73082Y66476D01*
X73341Y67100D01*
D02*
G37*
G36*
X70900D02*
X69459D01*
X69718Y66476D01*
X70276Y65918D01*
X70900Y65659D01*
Y67100D01*
D02*
G37*
G36*
X61051Y60833D02*
Y59392D01*
X62492D01*
X62233Y60016D01*
X61675Y60574D01*
X61051Y60833D01*
D02*
G37*
G36*
X60051D02*
X59427Y60574D01*
X58869Y60016D01*
X58611Y59392D01*
X60051D01*
Y60833D01*
D02*
G37*
G36*
X62492Y58392D02*
X61051D01*
Y56951D01*
X61675Y57210D01*
X62233Y57768D01*
X62492Y58392D01*
D02*
G37*
G36*
X60051D02*
X58611D01*
X58869Y57768D01*
X59427Y57210D01*
X60051Y56951D01*
Y58392D01*
D02*
G37*
G36*
X71300Y42841D02*
Y41400D01*
X72741D01*
X72482Y42024D01*
X71924Y42582D01*
X71300Y42841D01*
D02*
G37*
G36*
X70300D02*
X69676Y42582D01*
X69118Y42024D01*
X68859Y41400D01*
X70300D01*
Y42841D01*
D02*
G37*
G36*
X72741Y40400D02*
X71300D01*
Y38959D01*
X71924Y39218D01*
X72482Y39776D01*
X72741Y40400D01*
D02*
G37*
G36*
X70300D02*
X68859D01*
X69118Y39776D01*
X69676Y39218D01*
X70300Y38959D01*
Y40400D01*
D02*
G37*
G36*
X81500Y78041D02*
Y76600D01*
X82941D01*
X82682Y77224D01*
X82124Y77782D01*
X81500Y78041D01*
D02*
G37*
G36*
X80500D02*
X79876Y77782D01*
X79318Y77224D01*
X79059Y76600D01*
X80500D01*
Y78041D01*
D02*
G37*
G36*
X82941Y75600D02*
X81500D01*
Y74159D01*
X82124Y74418D01*
X82682Y74976D01*
X82941Y75600D01*
D02*
G37*
G36*
X80500D02*
X79059D01*
X79318Y74976D01*
X79876Y74418D01*
X80500Y74159D01*
Y75600D01*
D02*
G37*
G36*
X81000Y57490D02*
Y56049D01*
X82441D01*
X82182Y56673D01*
X81624Y57231D01*
X81000Y57490D01*
D02*
G37*
G36*
X80000D02*
X79376Y57231D01*
X78818Y56673D01*
X78559Y56049D01*
X80000D01*
Y57490D01*
D02*
G37*
G36*
X82441Y55049D02*
X81000D01*
Y53609D01*
X81624Y53867D01*
X82182Y54425D01*
X82441Y55049D01*
D02*
G37*
G36*
X80000D02*
X78559D01*
X78818Y54425D01*
X79376Y53867D01*
X80000Y53609D01*
Y55049D01*
D02*
G37*
%LPD*%
D24*
X115700Y19800D02*
D03*
X145700D02*
D03*
X175700D02*
D03*
X205700D02*
D03*
X15700D02*
D03*
X45700D02*
D03*
X85700D02*
D03*
X215700D02*
D03*
X225700D02*
D03*
X185700D02*
D03*
X195700D02*
D03*
X155700D02*
D03*
X165700D02*
D03*
X125700D02*
D03*
X135700D02*
D03*
X95700D02*
D03*
X105700D02*
D03*
X55700D02*
D03*
X65700D02*
D03*
X75700D02*
D03*
X25700D02*
D03*
X35700D02*
D03*
D25*
X40000Y265728D02*
X48390Y257339D01*
X51361D01*
X51500Y257200D01*
X40000Y265728D02*
Y267500D01*
X65800Y36800D02*
X65900Y36900D01*
X65700Y19800D02*
X65800Y19900D01*
Y36800D01*
X132047Y182299D02*
X132486Y181860D01*
Y126416D02*
Y181860D01*
X132047Y185260D02*
X132486Y185699D01*
X132047Y182299D02*
Y185260D01*
X132170Y126100D02*
X132486Y126416D01*
X147595Y147520D02*
X157500Y137615D01*
X167500Y166665D02*
Y180953D01*
X152931Y155388D02*
X156223D01*
X167500Y166665D01*
X140315Y168004D02*
X152931Y155388D01*
X155000Y158341D02*
X157500Y160841D01*
Y135081D02*
Y137615D01*
X157446Y135027D02*
X157500Y135081D01*
X154181Y119604D02*
X157446Y122868D01*
Y135027D01*
X126895Y119604D02*
X154181D01*
X102500Y126100D02*
X111358Y117242D01*
X122170Y124328D02*
X126895Y119604D01*
X122170Y124328D02*
Y126100D01*
X155160Y117242D02*
X162170Y124252D01*
X111358Y117242D02*
X155160D01*
X162170Y124252D02*
Y126100D01*
X157500Y160841D02*
Y204272D01*
X145819Y172500D02*
X154547D01*
X162500Y199272D02*
X171949Y208720D01*
X169587Y212087D02*
Y222815D01*
X157500Y204272D02*
X167224Y213996D01*
X172500Y225728D02*
Y227500D01*
X171949Y208720D02*
Y217628D01*
X169587Y222815D02*
X172500Y225728D01*
X171949Y217628D02*
X177776Y223455D01*
X165000Y207500D02*
X169587Y212087D01*
X177776Y223455D02*
Y231229D01*
X167224Y213996D02*
Y231229D01*
X164457Y233996D02*
X167224Y231229D01*
X160543Y233996D02*
X164457D01*
X154998Y228451D02*
X160543Y233996D01*
X154998Y228317D02*
Y228451D01*
X149227Y222546D02*
X154998Y228317D01*
X145576Y222546D02*
X149227D01*
X135000Y219047D02*
X141496Y225543D01*
X135000Y217500D02*
Y219047D01*
X141496Y225543D02*
Y252776D01*
X125551Y203996D02*
Y219877D01*
Y203996D02*
X132500Y197047D01*
X125551Y219877D02*
X128504Y222829D01*
Y210000D02*
Y215000D01*
X128504Y210000D02*
X128504Y210000D01*
Y222829D02*
Y240684D01*
X130000Y242180D02*
Y242500D01*
X128504Y240684D02*
X130000Y242180D01*
X128504Y205543D02*
Y210000D01*
X132642Y201405D02*
X133135D01*
X137500Y197040D01*
X128504Y205543D02*
X132642Y201405D01*
X135000Y207500D02*
Y217500D01*
X106535Y166622D02*
Y188441D01*
X101811Y190992D02*
X104906Y194087D01*
X135637Y189363D02*
X137953Y187047D01*
X137594Y194087D02*
X142776Y188906D01*
X106535Y188441D02*
X107458Y189363D01*
X104173Y190014D02*
X105885Y191725D01*
X107458Y189363D02*
X135637D01*
X136616Y191725D02*
X140315Y188026D01*
X105885Y191725D02*
X136616D01*
X104906Y194087D02*
X137594D01*
X132486Y185699D02*
Y186019D01*
X140315Y168004D02*
Y188026D01*
X137953Y167025D02*
Y187047D01*
Y167025D02*
X142500Y162478D01*
X135000Y160373D02*
Y183522D01*
X142170Y126100D02*
Y153203D01*
X135000Y160373D02*
X142170Y153203D01*
X142500Y158341D02*
X152087Y148754D01*
X166302Y141004D02*
X167224Y141926D01*
X142776Y175543D02*
Y188906D01*
X152087Y147615D02*
X158698Y141004D01*
X142500Y158341D02*
Y162478D01*
X142776Y175543D02*
X145819Y172500D01*
X167500Y143168D02*
Y150953D01*
X167224Y141926D02*
Y142893D01*
X152087Y147615D02*
Y148754D01*
X167224Y142893D02*
X167500Y143168D01*
X158698Y141004D02*
X166302D01*
X98858Y113642D02*
Y180435D01*
X74449Y220177D02*
X74724Y220453D01*
X74449Y180155D02*
Y220177D01*
X83504Y162224D02*
Y209457D01*
X89047Y215000D01*
X98504Y212776D02*
X103228Y217500D01*
X98504Y180790D02*
Y212776D01*
X89181Y215000D02*
X95000Y220819D01*
X83504Y162224D02*
X88228Y157500D01*
X95000Y220819D02*
Y255953D01*
X64707Y170413D02*
X74449Y180155D01*
X98504Y180790D02*
X98858Y180435D01*
X89047Y215000D02*
X89181D01*
X53782Y138030D02*
X54705Y138953D01*
Y139272D01*
X45000Y140000D02*
X51144D01*
X51264Y140120D01*
X53782Y137500D02*
Y138030D01*
X53427Y137500D02*
X53782D01*
X52974Y137047D02*
X53427Y137500D01*
X37382Y127120D02*
X47309Y137047D01*
X30000Y125000D02*
X45000Y140000D01*
X37382Y125144D02*
Y127120D01*
X32120Y119882D02*
X37382Y125144D01*
X27880Y119882D02*
X32120D01*
X27631Y120131D02*
X27880Y119882D01*
X23993Y123506D02*
X27369Y120131D01*
X27631D01*
X47309Y137047D02*
X52974D01*
X23993Y123506D02*
Y148319D01*
X27946Y148095D02*
X34843Y154993D01*
X27441Y144588D02*
X32088D01*
X37312Y149812D02*
X38116D01*
X41515Y162500D02*
X50000D01*
X34843Y155828D02*
X41515Y162500D01*
X38116Y149812D02*
X40916Y152612D01*
X23993Y148319D02*
X37500Y161825D01*
X34843Y154993D02*
Y155828D01*
X37500Y161825D02*
Y208453D01*
X32088Y144588D02*
X37312Y149812D01*
X37500Y208453D02*
X39724Y210677D01*
X30000Y235728D02*
X39724Y226004D01*
Y210677D02*
Y226004D01*
X30000Y235728D02*
Y237500D01*
X109808Y96058D02*
Y102692D01*
X107446Y60526D02*
Y101714D01*
X92500Y116100D02*
X93059D01*
X98858Y113642D02*
X109808Y102692D01*
X93059Y116100D02*
X107446Y101714D01*
X104173Y181750D02*
Y190014D01*
X101811Y163830D02*
Y190992D01*
X104173Y165644D02*
Y181750D01*
X105000Y159503D02*
X107126Y161629D01*
Y166032D01*
X104173Y165644D02*
X104764Y165053D01*
Y162607D02*
Y165053D01*
X106535Y166622D02*
X107126Y166032D01*
X102047Y159891D02*
X104764Y162607D01*
X102047Y152506D02*
Y159891D01*
X105000Y147500D02*
Y159503D01*
X53504Y169457D02*
X56749Y172702D01*
X53504Y161828D02*
Y169457D01*
X51223Y159547D02*
X53504Y161828D01*
X50097Y159547D02*
X51223D01*
X48050Y157500D02*
X50097Y159547D01*
X45000Y157500D02*
X48050D01*
X63655Y172702D02*
X67500Y176547D01*
Y202500D01*
X56749Y172702D02*
X63655D01*
X172500Y185953D02*
Y197500D01*
X167500Y180953D02*
X172500Y185953D01*
X112170Y64328D02*
Y66100D01*
Y72224D02*
X137244Y97298D01*
X141821D02*
X167446Y122923D01*
X112170Y66100D02*
Y72224D01*
X137244Y97298D02*
X141821D01*
X174862Y136324D02*
Y140806D01*
X172170Y133632D02*
X174862Y136324D01*
X172170Y126100D02*
Y133632D01*
X167446Y122923D02*
Y132996D01*
X172500Y138050D01*
Y147500D01*
X174862Y140806D02*
X177224Y143168D01*
Y151229D01*
X162500Y197500D02*
Y199272D01*
X62136Y207136D02*
Y207864D01*
Y207136D02*
Y207136D01*
X62136Y207136D01*
X61772Y207500D02*
X62136Y207136D01*
X60000Y187500D02*
Y197500D01*
Y207500D02*
X61772D01*
X51973Y172702D02*
Y209771D01*
X46772Y167500D02*
X51973Y172702D01*
X45000Y167500D02*
X46772D01*
X64685Y170413D02*
X64707D01*
X61772Y167500D02*
X64685Y170413D01*
X60000Y167500D02*
X61772D01*
X66496Y215610D02*
Y224888D01*
X54702Y212500D02*
X63386D01*
X66496Y215610D01*
X51973Y209771D02*
X54702Y212500D01*
X105000Y142500D02*
X107500Y145000D01*
X111352D01*
X165138Y151931D02*
X177776Y164569D01*
X162500Y149272D02*
X165138Y151909D01*
Y151931D01*
X177776Y164569D02*
Y181229D01*
X167500Y150953D02*
X170543Y153996D01*
X162500Y147500D02*
Y149272D01*
X174457Y153996D02*
X177224Y151229D01*
X170543Y153996D02*
X174457D01*
X152500Y265000D02*
X176681D01*
X207224Y234457D01*
Y227776D02*
Y234457D01*
Y227776D02*
X207500Y227500D01*
Y174047D02*
X217224Y164323D01*
Y144323D02*
X226895Y134652D01*
X212500Y135156D02*
Y147500D01*
X217224Y144323D02*
Y164323D01*
X207500Y174047D02*
Y227500D01*
X197776Y223771D02*
Y230677D01*
X179508Y248945D02*
X197776Y230677D01*
Y223771D02*
X202500Y219047D01*
X176055Y248945D02*
X179508D01*
X175000Y250000D02*
X176055Y248945D01*
X177776Y231229D02*
X180543Y233996D01*
X187663D02*
X192500Y229159D01*
X180543Y233996D02*
X187663D01*
X182500Y209272D02*
X192500Y199272D01*
X182500Y209272D02*
Y227500D01*
X192500D02*
Y229159D01*
Y197500D02*
Y199272D01*
X202500Y197500D02*
Y219047D01*
X226895Y122348D02*
Y134652D01*
X187446Y82899D02*
X226895Y122348D01*
X199852Y105329D02*
X216895Y122371D01*
X196260Y105329D02*
X199852D01*
X216895Y122371D02*
Y130761D01*
X117446Y132554D02*
X117500Y132500D01*
X117446Y132554D02*
Y138906D01*
X111352Y145000D02*
X117446Y138906D01*
X106772Y257500D02*
X112500Y263228D01*
X105000Y257500D02*
X106772D01*
X112500Y263228D02*
Y270298D01*
X108802Y273996D02*
X112500Y270298D01*
X68043Y273996D02*
X108802D01*
X65276Y271229D02*
X68043Y273996D01*
X65276Y266004D02*
Y271229D01*
X65000Y265728D02*
X65276Y266004D01*
X65000Y226384D02*
Y265728D01*
Y226384D02*
X66496Y224888D01*
X60000Y215610D02*
Y237500D01*
X15000Y187500D02*
X22638D01*
X25000Y185138D01*
X96496Y152224D02*
Y179457D01*
X91772Y147500D02*
X96496Y152224D01*
X90000Y147500D02*
X91772D01*
X96142Y179811D02*
X96496Y179457D01*
X91772Y187500D02*
X96142Y183130D01*
X90000Y187500D02*
X91772D01*
X96142Y179811D02*
Y183130D01*
X15000Y157500D02*
Y167500D01*
X88228Y157500D02*
X90000D01*
X74724Y220453D02*
Y260453D01*
X104077Y262224D02*
X105000Y263147D01*
Y267500D01*
Y237500D02*
Y247500D01*
X101271Y262224D02*
X104077D01*
X95000Y255953D02*
X101271Y262224D01*
X103228Y217500D02*
X105000D01*
X54055Y88057D02*
X56977Y90979D01*
Y91100D01*
X54055Y61202D02*
Y88057D01*
Y61202D02*
X55700Y59557D01*
Y19800D02*
Y59557D01*
X109808Y96058D02*
X112500Y93366D01*
X80000Y265728D02*
Y267500D01*
X74724Y260453D02*
X80000Y265728D01*
X60000Y157500D02*
Y167500D01*
X135000Y237500D02*
Y247500D01*
Y227500D02*
Y237500D01*
X136772Y257500D02*
X141496Y252776D01*
X135000Y257500D02*
X136772D01*
X182500Y165953D02*
X197446Y151007D01*
X182500Y185953D02*
Y197500D01*
X177776Y181229D02*
X182500Y185953D01*
Y165953D02*
Y177500D01*
X25000Y60000D02*
Y67500D01*
Y60000D02*
X45700Y39300D01*
Y19800D02*
Y39300D01*
X62323Y96100D02*
X77047Y81376D01*
X95006D02*
X97304Y79078D01*
Y57153D02*
Y79078D01*
X60551Y96100D02*
X62323D01*
X77047Y81376D02*
X95006D01*
X95700Y55549D02*
X97304Y57153D01*
X95700Y19800D02*
Y55549D01*
X86203Y20303D02*
Y60150D01*
X87876Y73918D02*
X90058Y76100D01*
X87876Y73247D02*
Y73918D01*
X90058Y76100D02*
X90728D01*
X84055Y62298D02*
X86203Y60150D01*
X85728Y71575D02*
X86203D01*
X84055Y69902D02*
X85728Y71575D01*
X84055Y62298D02*
Y69902D01*
X85700Y19800D02*
X86203Y20303D01*
Y71575D02*
X87876Y73247D01*
X64272Y86100D02*
X75700Y74672D01*
Y19800D02*
Y74672D01*
X62500Y86100D02*
X64272D01*
X93404Y85196D02*
X97304D01*
X92500Y86100D02*
X93404Y85196D01*
X97304D02*
X100000Y82500D01*
X105700Y19800D02*
Y47251D01*
X100000Y52951D02*
X105700Y47251D01*
X100000Y52951D02*
Y82500D01*
X102500Y55115D02*
X115700Y41915D01*
X102500Y55115D02*
Y87500D01*
X115700Y19800D02*
Y41915D01*
X92500Y96100D02*
X93900D01*
X102500Y87500D01*
X105000Y58576D02*
Y95372D01*
X92500Y106100D02*
X94272D01*
X105000Y95372D01*
X128746Y46596D02*
X145700Y29643D01*
X128746Y46596D02*
Y47752D01*
X107446Y60526D02*
X120053Y47919D01*
X112170Y64328D02*
X128746Y47752D01*
X105000Y58576D02*
X125700Y37876D01*
Y19800D02*
Y37876D01*
X135700Y19800D02*
Y35312D01*
X123093Y47919D02*
X135700Y35312D01*
X120053Y47919D02*
X123093D01*
X132000Y59447D02*
X145692Y45755D01*
X122170Y66100D02*
Y67647D01*
Y63750D02*
Y66100D01*
Y63750D02*
X155700Y30220D01*
X145692Y45755D02*
X149588D01*
X132000Y59447D02*
Y65930D01*
X122170Y67647D02*
X176895Y122371D01*
Y129277D01*
X132000Y65930D02*
X132170Y66100D01*
Y67647D02*
X186895Y122371D01*
X149588Y45755D02*
X165700Y29643D01*
X132170Y66100D02*
Y67647D01*
X172170Y67872D02*
X177485Y73186D01*
X182131D01*
X182170Y67872D02*
X185084Y70785D01*
X187446Y62371D02*
Y82899D01*
X182170Y64328D02*
Y67872D01*
X185084Y70785D02*
Y74486D01*
X180000Y79570D02*
X185084Y74486D01*
X180000Y79570D02*
Y89068D01*
X182953Y87392D02*
X187446Y82899D01*
X180000Y89068D02*
X196260Y105329D01*
X172170Y66100D02*
Y67872D01*
X182170Y64328D02*
X185084Y61415D01*
X187446Y62371D02*
X200976Y48842D01*
X202170D02*
X215700Y35312D01*
Y19800D02*
Y35312D01*
X200976Y48842D02*
X202170D01*
X205700Y19800D02*
Y40777D01*
X185084Y61393D02*
Y61415D01*
Y61393D02*
X205700Y40777D01*
X212500Y135156D02*
X216895Y130761D01*
X142170Y67647D02*
X197446Y122923D01*
X142170Y66100D02*
Y67647D01*
X197446Y122923D02*
Y151007D01*
X206895Y122371D02*
Y130761D01*
X152170Y67647D02*
X206895Y122371D01*
X152170Y66100D02*
Y67647D01*
X202500Y135156D02*
Y147500D01*
Y135156D02*
X206895Y130761D01*
X186895Y129277D02*
X192500Y134883D01*
X186895Y122371D02*
Y129277D01*
X192500Y134883D02*
Y147500D01*
X182500Y134883D02*
Y147500D01*
X176895Y129277D02*
X182500Y134883D01*
X195700Y19800D02*
Y30220D01*
X162170Y63750D02*
Y66100D01*
Y63750D02*
X195700Y30220D01*
X145700Y19800D02*
Y29643D01*
X155700Y19800D02*
Y30220D01*
X142000Y59447D02*
Y65930D01*
X142170Y66100D01*
X142000Y59447D02*
X155692Y45755D01*
X159588D01*
X175700Y29643D01*
Y19800D02*
Y29643D01*
X152000Y59447D02*
Y65930D01*
X152170Y66100D01*
X152000Y59447D02*
X165692Y45755D01*
X169588D01*
X185700Y29643D01*
Y19800D02*
Y29643D01*
X165700Y19800D02*
Y29643D01*
D26*
X152170Y126100D02*
Y135330D01*
X150000Y137500D02*
X152170Y135330D01*
X147500Y177500D02*
Y200675D01*
X162500Y215675D01*
Y227500D01*
X106772Y207500D02*
X123976Y224705D01*
Y253037D01*
X125000Y254061D01*
X105000Y207500D02*
X106772D01*
X125000Y254061D02*
Y282500D01*
X80000Y212356D02*
Y222500D01*
X78976Y164705D02*
Y211332D01*
X80000Y212356D01*
X61772Y147500D02*
X78976Y164705D01*
X15000Y147500D02*
X16772D01*
X32972Y163701D01*
Y210328D01*
X35000Y212356D01*
X32972Y222500D02*
X35000D01*
Y212356D02*
Y222500D01*
X5808D02*
X32972D01*
X223360Y267500D02*
X235000Y255860D01*
X165000Y294488D02*
X191988Y267500D01*
X223360D01*
X60000Y147500D02*
X61772D01*
X60551Y132990D02*
X81890D01*
X55926D02*
X60551D01*
X60000Y133541D02*
Y147500D01*
Y133541D02*
X60551Y132990D01*
X88779Y126100D02*
X90551D01*
X81890Y132990D02*
X88779Y126100D01*
X51751Y128815D02*
X55926Y132990D01*
X51751Y93951D02*
Y128815D01*
X47500Y89700D02*
X51751Y93951D01*
X47500Y76100D02*
Y89700D01*
X12553Y85000D02*
Y95755D01*
Y55647D02*
Y85000D01*
X38600D01*
X47500Y76100D01*
X5808Y222500D02*
Y245000D01*
Y102500D02*
Y222500D01*
X50000Y267500D02*
Y280000D01*
X136772Y267500D02*
X147500Y256772D01*
Y227500D02*
Y256772D01*
X135000Y267500D02*
X136772D01*
X135000D02*
Y282500D01*
X137500Y295000D02*
X165000D01*
X125000Y282500D02*
X137500Y295000D01*
X46890Y286890D02*
X52854D01*
X57244Y282500D01*
X40000Y280000D02*
X46890Y286890D01*
X57244Y282500D02*
X125000D01*
X5808Y245000D02*
Y257908D01*
Y245000D02*
X6969Y246161D01*
X43110D01*
X50000Y239272D01*
Y237500D02*
Y239272D01*
X13110Y272126D02*
X20985Y280000D01*
X13110Y265210D02*
Y272126D01*
X20985Y280000D02*
X40000D01*
X5808Y257908D02*
X13110Y265210D01*
X235000Y197500D02*
Y255860D01*
Y147500D02*
Y197500D01*
X222500D02*
X235000D01*
X225700Y66100D02*
Y94700D01*
Y52500D02*
Y66100D01*
X222170D02*
X225700D01*
X235000Y104000D02*
Y147500D01*
X222500D02*
X235000D01*
X225700Y19800D02*
Y52500D01*
X5808Y102500D02*
X12553Y95755D01*
Y55647D02*
X15700Y52500D01*
X225700Y94700D02*
X235000Y104000D01*
X165000Y294488D02*
Y295000D01*
X15700Y19800D02*
Y52500D01*
D27*
X147500Y177500D02*
D03*
Y167500D02*
D03*
X45000Y222500D02*
D03*
X35000D02*
D03*
X122170Y137500D02*
D03*
X112170D02*
D03*
X165000Y260000D02*
D03*
X175000D02*
D03*
X40000Y280000D02*
D03*
X50000D02*
D03*
X147500Y217500D02*
D03*
Y227500D02*
D03*
X47500Y76100D02*
D03*
Y66100D02*
D03*
X125000Y282500D02*
D03*
X135000D02*
D03*
X80000Y222500D02*
D03*
X90000D02*
D03*
D28*
X205000Y250000D02*
D03*
X175000D02*
D03*
X30000Y125000D02*
D03*
Y95000D02*
D03*
X42500Y125000D02*
D03*
Y95000D02*
D03*
D29*
X165000Y276496D02*
D03*
Y295000D02*
D03*
Y313504D02*
D03*
D30*
X25000Y77500D02*
D03*
X30000Y72500D02*
D03*
X25000Y67500D02*
D03*
D31*
X222500Y227500D02*
D03*
X212500D02*
D03*
X202500D02*
D03*
X192500D02*
D03*
X182500D02*
D03*
X172500D02*
D03*
X162500D02*
D03*
X222500Y197500D02*
D03*
X212500D02*
D03*
X202500D02*
D03*
X192500D02*
D03*
X182500D02*
D03*
X172500D02*
D03*
X90000Y237500D02*
D03*
X80000D02*
D03*
X30000D02*
D03*
X20000D02*
D03*
X70000D02*
D03*
X60000D02*
D03*
X50000D02*
D03*
X40000D02*
D03*
X20000Y267500D02*
D03*
X80000D02*
D03*
X70000D02*
D03*
X60000D02*
D03*
X50000D02*
D03*
X40000D02*
D03*
X30000D02*
D03*
X122170Y66100D02*
D03*
X132170D02*
D03*
X142170D02*
D03*
X152170D02*
D03*
X162170D02*
D03*
X172170D02*
D03*
X182170D02*
D03*
X192170D02*
D03*
X202170D02*
D03*
X212170D02*
D03*
X222170D02*
D03*
Y126100D02*
D03*
X212170D02*
D03*
X202170D02*
D03*
X192170D02*
D03*
X182170D02*
D03*
X172170D02*
D03*
X162170D02*
D03*
X152170D02*
D03*
X112170D02*
D03*
X122170D02*
D03*
X132170D02*
D03*
X142170D02*
D03*
X222500Y177500D02*
D03*
X212500D02*
D03*
X202500D02*
D03*
X192500D02*
D03*
X182500D02*
D03*
X172500D02*
D03*
X162500D02*
D03*
X222500Y147500D02*
D03*
X212500D02*
D03*
X202500D02*
D03*
X192500D02*
D03*
X182500D02*
D03*
X172500D02*
D03*
D32*
X162500Y197500D02*
D03*
X90000Y267500D02*
D03*
X112170Y66100D02*
D03*
X162500Y147500D02*
D03*
D33*
X90551Y66100D02*
D03*
X60000Y207500D02*
D03*
X15000D02*
D03*
X105000Y267500D02*
D03*
D34*
X90551Y76100D02*
D03*
Y86100D02*
D03*
Y96100D02*
D03*
Y106100D02*
D03*
Y116100D02*
D03*
Y126100D02*
D03*
X60551Y66100D02*
D03*
Y76100D02*
D03*
Y86100D02*
D03*
Y96100D02*
D03*
Y106100D02*
D03*
Y116100D02*
D03*
Y126100D02*
D03*
X60000Y197500D02*
D03*
Y187500D02*
D03*
Y177500D02*
D03*
Y167500D02*
D03*
Y157500D02*
D03*
Y147500D02*
D03*
X90000Y207500D02*
D03*
Y197500D02*
D03*
Y187500D02*
D03*
Y177500D02*
D03*
Y167500D02*
D03*
Y157500D02*
D03*
Y147500D02*
D03*
X15000Y197500D02*
D03*
Y187500D02*
D03*
Y177500D02*
D03*
Y167500D02*
D03*
Y157500D02*
D03*
Y147500D02*
D03*
X45000Y207500D02*
D03*
Y197500D02*
D03*
Y187500D02*
D03*
Y177500D02*
D03*
Y167500D02*
D03*
Y157500D02*
D03*
Y147500D02*
D03*
X105000Y257500D02*
D03*
Y247500D02*
D03*
Y237500D02*
D03*
Y227500D02*
D03*
Y217500D02*
D03*
Y207500D02*
D03*
X135000Y267500D02*
D03*
Y257500D02*
D03*
Y247500D02*
D03*
Y237500D02*
D03*
Y227500D02*
D03*
Y217500D02*
D03*
Y207500D02*
D03*
D35*
X211670Y59130D02*
D03*
X221900Y107500D02*
D03*
X233400Y147500D02*
D03*
X234000Y212300D02*
D03*
X220200Y267500D02*
D03*
X192900Y270700D02*
D03*
X93000Y280900D02*
D03*
X84724Y229486D02*
D03*
X70000Y247900D02*
D03*
X119988Y208000D02*
D03*
X142631Y210000D02*
D03*
X114700Y221500D02*
D03*
X208635Y241400D02*
D03*
X181500Y239700D02*
D03*
X155100Y238300D02*
D03*
X185939Y138050D02*
D03*
X180400Y157400D02*
D03*
X165308Y187400D02*
D03*
X200000Y189400D02*
D03*
X198600Y167500D02*
D03*
X137900Y141453D02*
D03*
X128334Y141183D02*
D03*
X115139Y151272D02*
D03*
X73800Y147000D02*
D03*
X60000Y133599D02*
D03*
X33465Y89500D02*
D03*
X5808Y97120D02*
D03*
X80500Y55549D02*
D03*
X81000Y76100D02*
D03*
X80500Y87500D02*
D03*
X141400Y101400D02*
D03*
X193500Y76700D02*
D03*
X48475Y102264D02*
D03*
X70800Y40900D02*
D03*
X71400Y67600D02*
D03*
X52200Y53000D02*
D03*
X60551Y58892D02*
D03*
X40700Y36700D02*
D03*
X15000Y227300D02*
D03*
X9400Y251500D02*
D03*
X143700Y273800D02*
D03*
X118700Y262800D02*
D03*
X86500Y257100D02*
D03*
X20200Y281900D02*
D03*
X195000Y314700D02*
D03*
X175300Y305000D02*
D03*
D36*
X215000Y285000D02*
D03*
Y305000D02*
D03*
D37*
X51500Y257200D02*
D03*
X65900Y36900D02*
D03*
X135000Y183522D02*
D03*
X147575Y147500D02*
D03*
X155000Y158341D02*
D03*
X154547Y172500D02*
D03*
X165000Y207500D02*
D03*
X145576Y222546D02*
D03*
X128504Y215000D02*
D03*
X137500Y197040D02*
D03*
X132486Y186019D02*
D03*
X130000Y242500D02*
D03*
X132500Y197047D02*
D03*
X102500Y126100D02*
D03*
X54705Y139272D02*
D03*
X51264Y140120D02*
D03*
X40916Y152612D02*
D03*
X27946Y148095D02*
D03*
X27441Y144588D02*
D03*
X101811Y163830D02*
D03*
X67500Y202500D02*
D03*
X105000Y147500D02*
D03*
Y142500D02*
D03*
X102047Y152506D02*
D03*
X152500Y265000D02*
D03*
X117500Y132500D02*
D03*
X25000Y185138D02*
D03*
X50000Y162500D02*
D03*
X60000Y215610D02*
D03*
X56977Y91100D02*
D03*
X112500Y93366D02*
D03*
X182131Y73186D02*
D03*
X182953Y87392D02*
D03*
D38*
X150000Y137500D02*
D03*
X15700Y52500D02*
D03*
X225700D02*
D03*
M02*
